<?xml version="1.0" encoding="UTF-8" standalone="no"?>
<!-- Created with Inkscape (http://www.inkscape.org/) -->

<svg
   xmlns:osb="http://www.openswatchbook.org/uri/2009/osb"
   xmlns:dc="http://purl.org/dc/elements/1.1/"
   xmlns:cc="http://creativecommons.org/ns#"
   xmlns:rdf="http://www.w3.org/1999/02/22-rdf-syntax-ns#"
   xmlns:svg="http://www.w3.org/2000/svg"
   xmlns="http://www.w3.org/2000/svg"
   xmlns:xlink="http://www.w3.org/1999/xlink"
   xmlns:sodipodi="http://sodipodi.sourceforge.net/DTD/sodipodi-0.dtd"
   xmlns:inkscape="http://www.inkscape.org/namespaces/inkscape"
   width="100"
   height="106"
   id="svg2"
   version="1.1"
   inkscape:version="0.47 r22583"
   sodipodi:docname="erb0.svg">
  <defs
     id="defs4">
    <linearGradient
       inkscape:collect="always"
       id="linearGradient5375">
      <stop
         style="stop-color:#dfdbd2;stop-opacity:1;"
         offset="0"
         id="stop5377" />
      <stop
         style="stop-color:#dfdbd2;stop-opacity:0;"
         offset="1"
         id="stop5379" />
    </linearGradient>
    <linearGradient
       id="linearGradient5294">
      <stop
         style="stop-color:#dfdbd2;stop-opacity:0.48235294;"
         offset="0"
         id="stop5337" />
      <stop
         style="stop-color:#dfdbd2;stop-opacity:0.46666667;"
         offset="0.0625"
         id="stop5335" />
      <stop
         style="stop-color:#dfdbd2;stop-opacity:0.43529412;"
         offset="0.125"
         id="stop5333" />
      <stop
         style="stop-color:#dfdbd2;stop-opacity:0.37254902;"
         offset="0.25"
         id="stop5331" />
      <stop
         style="stop-color:#dfdbd2;stop-opacity:0.24705882;"
         offset="0.5"
         id="stop5329" />
      <stop
         style="stop-color:#dfdbd2;stop-opacity:0;"
         offset="1"
         id="stop5298" />
    </linearGradient>
    <linearGradient
       id="linearGradient5286"
       osb:paint="solid">
      <stop
         style="stop-color:#dfdbd2;stop-opacity:1;"
         offset="0"
         id="stop5288" />
    </linearGradient>
    <linearGradient
       id="linearGradient5248">
      <stop
         style="stop-color:#dfdbd2;stop-opacity:1;"
         offset="0"
         id="stop5250" />
      <stop
         style="stop-color:#dfdbd2;stop-opacity:0;"
         offset="1"
         id="stop5252" />
    </linearGradient>
    <inkscape:perspective
       sodipodi:type="inkscape:persp3d"
       inkscape:vp_x="0 : 526.18109 : 1"
       inkscape:vp_y="0 : 1000 : 0"
       inkscape:vp_z="744.09448 : 526.18109 : 1"
       inkscape:persp3d-origin="372.04724 : 350.78739 : 1"
       id="perspective10" />
    <inkscape:perspective
       id="perspective2824"
       inkscape:persp3d-origin="0.5 : 0.33333333 : 1"
       inkscape:vp_z="1 : 0.5 : 1"
       inkscape:vp_y="0 : 1000 : 0"
       inkscape:vp_x="0 : 0.5 : 1"
       sodipodi:type="inkscape:persp3d" />
    <linearGradient
       id="linearGradient7100">
      <stop
         style="stop-color: rgb(199, 25, 7); stop-opacity: 1;"
         offset="0"
         id="stop7102" />
      <stop
         style="stop-color: rgb(227, 141, 94); stop-opacity: 1;"
         offset="1"
         id="stop7104" />
    </linearGradient>
    <linearGradient
       id="linearGradient4572">
      <stop
         style="stop-color: rgb(199, 25, 7); stop-opacity: 1;"
         offset="0"
         id="stop4574" />
      <stop
         style="stop-color: rgb(232, 160, 108); stop-opacity: 1;"
         offset="1"
         id="stop4576" />
    </linearGradient>
    <linearGradient
       id="linearGradient7199">
      <stop
         style="stop-color: rgb(254, 254, 254); stop-opacity: 1;"
         offset="0"
         id="stop7201" />
      <stop
         style="stop-color: rgb(254, 254, 254); stop-opacity: 0;"
         offset="1"
         id="stop7203" />
    </linearGradient>
    <inkscape:perspective
       id="perspective3651"
       inkscape:persp3d-origin="177.91713 : 101.81116 : 1"
       inkscape:vp_z="355.83426 : 152.71674 : 1"
       inkscape:vp_y="0 : 1000 : 0"
       inkscape:vp_x="0 : 152.71674 : 1"
       sodipodi:type="inkscape:persp3d" />
    <linearGradient
       inkscape:collect="always"
       xlink:href="#linearGradient7199"
       id="linearGradient3684"
       gradientUnits="userSpaceOnUse"
       x1="478"
       y1="1272.3622"
       x2="472.11472"
       y2="1121.9014"
       gradientTransform="translate(240.729,-844.302)" />
    <inkscape:perspective
       id="perspective3701"
       inkscape:persp3d-origin="0.5 : 0.33333333 : 1"
       inkscape:vp_z="1 : 0.5 : 1"
       inkscape:vp_y="0 : 1000 : 0"
       inkscape:vp_x="0 : 0.5 : 1"
       sodipodi:type="inkscape:persp3d" />
    <inkscape:perspective
       id="perspective3725"
       inkscape:persp3d-origin="0.5 : 0.33333333 : 1"
       inkscape:vp_z="1 : 0.5 : 1"
       inkscape:vp_y="0 : 1000 : 0"
       inkscape:vp_x="0 : 0.5 : 1"
       sodipodi:type="inkscape:persp3d" />
    <inkscape:perspective
       id="perspective3749"
       inkscape:persp3d-origin="0.5 : 0.33333333 : 1"
       inkscape:vp_z="1 : 0.5 : 1"
       inkscape:vp_y="0 : 1000 : 0"
       inkscape:vp_x="0 : 0.5 : 1"
       sodipodi:type="inkscape:persp3d" />
    <inkscape:perspective
       id="perspective3773"
       inkscape:persp3d-origin="0.5 : 0.33333333 : 1"
       inkscape:vp_z="1 : 0.5 : 1"
       inkscape:vp_y="0 : 1000 : 0"
       inkscape:vp_x="0 : 0.5 : 1"
       sodipodi:type="inkscape:persp3d" />
    <inkscape:perspective
       id="perspective3795"
       inkscape:persp3d-origin="0.5 : 0.33333333 : 1"
       inkscape:vp_z="1 : 0.5 : 1"
       inkscape:vp_y="0 : 1000 : 0"
       inkscape:vp_x="0 : 0.5 : 1"
       sodipodi:type="inkscape:persp3d" />
    <linearGradient
       inkscape:collect="always"
       xlink:href="#linearGradient5248"
       id="linearGradient5256"
       x1="162.81747"
       y1="273.26703"
       x2="457.61368"
       y2="273.26703"
       gradientUnits="userSpaceOnUse" />
    <radialGradient
       inkscape:collect="always"
       xlink:href="#linearGradient5248"
       id="radialGradient5271"
       cx="304.21558"
       cy="277.26703"
       fx="304.21558"
       fy="277.26703"
       r="147.39812"
       gradientTransform="matrix(1,0,0,1.0833842,0,-23.119692)"
       gradientUnits="userSpaceOnUse" />
    <radialGradient
       inkscape:collect="always"
       xlink:href="#linearGradient5375"
       id="radialGradient5395"
       cx="262.69281"
       cy="257.4079"
       fx="262.69281"
       fy="257.4079"
       r="147.39812"
       gradientTransform="matrix(1.2356288,0.00598777,-0.00535559,1.1051715,-60.519427,-30.467625)"
       gradientUnits="userSpaceOnUse" />
    <radialGradient
       inkscape:collect="always"
       xlink:href="#linearGradient5375"
       id="radialGradient2857"
       gradientUnits="userSpaceOnUse"
       gradientTransform="matrix(1.2356288,0.00598777,-0.00535559,1.1051715,-60.519427,-30.467625)"
       cx="262.69281"
       cy="257.4079"
       fx="262.69281"
       fy="257.4079"
       r="147.39812" />
  </defs>
  <sodipodi:namedview
     id="base"
     pagecolor="#ffffff"
     bordercolor="#666666"
     borderopacity="1.0"
     inkscape:pageopacity="0.0"
     inkscape:pageshadow="2"
     inkscape:zoom="1.2667928"
     inkscape:cx="127.07394"
     inkscape:cy="177.17416"
     inkscape:document-units="px"
     inkscape:current-layer="svg2"
     showgrid="false"
     inkscape:window-width="1366"
     inkscape:window-height="706"
     inkscape:window-x="-8"
     inkscape:window-y="-8"
     inkscape:window-maximized="1" />
  <metadata
     id="metadata7">
    <rdf:RDF>
      <cc:Work
         rdf:about="">
        <dc:format>image/svg+xml</dc:format>
        <dc:type
           rdf:resource="http://purl.org/dc/dcmitype/StillImage" />
        <dc:title />
      </cc:Work>
    </rdf:RDF>
  </metadata>
  <g
     inkscape:label="Camada 1"
     inkscape:groupmode="layer"
     id="layer1"
     transform="translate(-153.18566,-112.71459)">
    <g
       id="g2852"
       transform="matrix(0.32701516,0,0,0.32701516,103.86606,75.169383)">
      <path
         id="path44"
         inkscape:connector-curvature="0"
         sodipodi:nodetypes="ccccczssssccscsssssssscc"
         d="m 175.04469,162.3226 0,-1.38821 -2.9e-4,-2e-5 c 16.08035,-14.98455 24.55928,-31.32074 42.07991,-42.86075 0.38792,-0.2422 1.30145,-0.43382 1.30145,-0.43382 12.69512,4.97871 24.49935,10.08049 38.6961,13.36145 14.19686,3.28096 30.5362,6.24997 45.98427,5.8131 22.699,-0.64192 46.20834,-2.5989 67.67479,-10.41152 l 25.50821,-9.2836 c 0.62036,-0.22576 1.22508,0.53552 1.73524,0.95439 15.3576,12.60822 38.3491,45.63714 38.3491,45.63714 l 0,1.04116 c -6.56159,8.34166 -10.88361,17.73682 -15.09669,27.41698 -3.20305,7.35948 -2.70766,14.08154 -1.1279,21.69066 2.68764,14.33059 7.43013,28.08027 12.66733,41.64606 5.70646,14.78137 15.63075,28.71404 16.74515,44.76952 0.55574,8.00681 0.93287,16.22513 -0.0865,24.20677 -1.1415,8.93863 -4.92848,17.61683 -9.80419,25.16116 -6.68441,10.34292 -16.09874,18.64364 -26.28901,25.42145 -11.14801,7.41487 -23.44015,12.77884 -35.91974,17.52605 -13.36873,5.08547 -26.27365,11.13179 -39.04321,17.52606 -3.91485,1.96032 -9.07694,4.46658 -13.53499,6.85424 -8.31461,4.4532 -16.19378,9.8429 -22.99209,16.39814 l -1.30145,0.0868"
         style="fill:none;stroke:#000000;stroke-width:3;stroke-linecap:round;stroke-linejoin:miter;stroke-miterlimit:4;stroke-opacity:1;stroke-dasharray:none" />
      <path
         inkscape:connector-curvature="0"
         sodipodi:nodetypes="csczssssccscsssssssscccsssscssccc"
         id="path5274"
         d="m 169.04441,164.93435 c 0,0 25.09706,-32.25663 42.0799,-42.86073 0.38792,-0.2422 1.30145,-0.43382 1.30145,-0.43382 12.69512,4.97871 24.49935,10.08049 38.6961,13.36145 14.19686,3.28096 30.5362,6.24997 45.98427,5.8131 22.699,-0.64192 46.20834,-2.5989 67.67479,-10.41152 l 25.50821,-9.2836 c 0.62036,-0.22576 1.22508,0.53552 1.73524,0.95439 15.3576,12.60822 38.3491,45.63714 38.3491,45.63714 l 0,1.04116 c -6.56159,8.34166 -10.88361,17.73682 -15.09669,27.41698 -3.20305,7.35948 -2.70766,14.08154 -1.1279,21.69066 2.68764,14.33059 7.43013,28.08027 12.66733,41.64606 5.70646,14.78137 15.63075,28.71404 16.74515,44.76952 0.55574,8.00681 0.93287,16.22513 -0.0865,24.20677 -1.1415,8.93863 -4.92848,17.61683 -9.80419,25.16116 -6.68441,10.34292 -16.09874,18.64364 -26.28901,25.42145 -11.14801,7.41487 -23.44015,12.77884 -35.91974,17.52605 -13.36873,5.08547 -26.27365,11.13179 -39.04321,17.52606 -3.91485,1.96032 -9.07694,4.46658 -13.53499,6.85424 -8.31461,4.4532 -16.19378,9.8429 -22.99209,16.39814 l -1.30145,0.0868 c -7.33791,-6.55346 -15.37995,-12.12035 -23.51264,-17.61282 -14.36351,-9.90151 -30.80654,-15.58482 -47.3724,-20.47598 -21.92929,-6.47474 -40.53162,-18.68372 -55.44134,-35.83296 -8.65608,-9.95628 -13.77269,-23.2203 -15.53047,-36.35354 -0.73172,-5.46713 -0.42329,-16.08259 0.34701,-24.03325 1.6403,-16.93169 11.23138,-31.87491 19.17459,-46.59153 9.25769,-17.78144 15.66292,-39.17839 11.62621,-59.34564 -2.00801,-10.0321 -6.5956,-19.68024 -12.66733,-27.93756 l -2.16912,-2.94993 0,-1.38821 -2.9e-4,-2e-5 z"
         style="fill:url(#radialGradient2857);fill-opacity:1;fill-rule:nonzero;stroke:#000000;stroke-width:3;stroke-linecap:round;stroke-linejoin:miter;stroke-miterlimit:4;stroke-opacity:1;stroke-dasharray:none" />
      <path
         id="path5304"
         style="opacity:0.3;fill:none;stroke:#000000;stroke-width:5;stroke-linecap:round;stroke-linejoin:miter;stroke-miterlimit:4;stroke-opacity:1;stroke-dasharray:none"
         d="m 402.02437,118.07362 c 15.3576,12.60822 38.3491,45.63714 38.3491,45.63714 l 0,1.04116 c -6.56159,8.34166 -10.88361,17.73682 -15.09669,27.41698 -3.20305,7.35948 -2.70766,14.08154 -1.1279,21.69066 2.68764,14.33059 7.43013,28.08027 12.66733,41.64606 5.70646,14.78137 15.63075,28.71404 16.74515,44.76952 0.55574,8.00681 0.93287,16.22513 -0.0865,24.20677 -1.1415,8.93863 -4.92848,17.61683 -9.80419,25.16116 -6.68441,10.34292 -16.09874,18.64364 -26.28901,25.42145 -11.14801,7.41487 -23.44015,12.77884 -35.91974,17.52605 -13.36873,5.08547 -26.27365,11.13179 -39.04321,17.52606 -3.91485,1.96032 -9.07694,4.46658 -13.53499,6.85424 -8.31461,4.4532 -16.19378,9.8429 -22.99209,16.39814 l -1.30145,0.0868"
         sodipodi:nodetypes="cccscsssssssscc"
         inkscape:connector-curvature="0" />
    </g>
  </g>
</svg>
