<?xml version="1.0" encoding="UTF-8" standalone="no"?>
<!-- Created with Inkscape (http://www.inkscape.org/) -->

<svg
   xmlns:osb="http://www.openswatchbook.org/uri/2009/osb"
   xmlns:dc="http://purl.org/dc/elements/1.1/"
   xmlns:cc="http://creativecommons.org/ns#"
   xmlns:rdf="http://www.w3.org/1999/02/22-rdf-syntax-ns#"
   xmlns:svg="http://www.w3.org/2000/svg"
   xmlns="http://www.w3.org/2000/svg"
   xmlns:xlink="http://www.w3.org/1999/xlink"
   xmlns:sodipodi="http://sodipodi.sourceforge.net/DTD/sodipodi-0.dtd"
   xmlns:inkscape="http://www.inkscape.org/namespaces/inkscape"
   width="100"
   height="105"
   id="svg2"
   version="1.1"
   inkscape:version="0.47 r22583"
   sodipodi:docname="erb1.svg">
  <defs
     id="defs4">
    <linearGradient
       inkscape:collect="always"
       id="linearGradient5375">
      <stop
         style="stop-color:#dfdbd2;stop-opacity:1;"
         offset="0"
         id="stop5377" />
      <stop
         style="stop-color:#dfdbd2;stop-opacity:0;"
         offset="1"
         id="stop5379" />
    </linearGradient>
    <linearGradient
       id="linearGradient5294">
      <stop
         style="stop-color:#dfdbd2;stop-opacity:0.48235294;"
         offset="0"
         id="stop5337" />
      <stop
         style="stop-color:#dfdbd2;stop-opacity:0.46666667;"
         offset="0.0625"
         id="stop5335" />
      <stop
         style="stop-color:#dfdbd2;stop-opacity:0.43529412;"
         offset="0.125"
         id="stop5333" />
      <stop
         style="stop-color:#dfdbd2;stop-opacity:0.37254902;"
         offset="0.25"
         id="stop5331" />
      <stop
         style="stop-color:#dfdbd2;stop-opacity:0.24705882;"
         offset="0.5"
         id="stop5329" />
      <stop
         style="stop-color:#dfdbd2;stop-opacity:0;"
         offset="1"
         id="stop5298" />
    </linearGradient>
    <linearGradient
       id="linearGradient5286"
       osb:paint="solid">
      <stop
         style="stop-color:#dfdbd2;stop-opacity:1;"
         offset="0"
         id="stop5288" />
    </linearGradient>
    <linearGradient
       id="linearGradient5248">
      <stop
         style="stop-color:#dfdbd2;stop-opacity:1;"
         offset="0"
         id="stop5250" />
      <stop
         style="stop-color:#dfdbd2;stop-opacity:0;"
         offset="1"
         id="stop5252" />
    </linearGradient>
    <inkscape:perspective
       sodipodi:type="inkscape:persp3d"
       inkscape:vp_x="0 : 526.18109 : 1"
       inkscape:vp_y="0 : 1000 : 0"
       inkscape:vp_z="744.09448 : 526.18109 : 1"
       inkscape:persp3d-origin="372.04724 : 350.78739 : 1"
       id="perspective10" />
    <inkscape:perspective
       id="perspective2824"
       inkscape:persp3d-origin="0.5 : 0.33333333 : 1"
       inkscape:vp_z="1 : 0.5 : 1"
       inkscape:vp_y="0 : 1000 : 0"
       inkscape:vp_x="0 : 0.5 : 1"
       sodipodi:type="inkscape:persp3d" />
    <linearGradient
       id="linearGradient7100">
      <stop
         style="stop-color: rgb(199, 25, 7); stop-opacity: 1;"
         offset="0"
         id="stop7102" />
      <stop
         style="stop-color: rgb(227, 141, 94); stop-opacity: 1;"
         offset="1"
         id="stop7104" />
    </linearGradient>
    <linearGradient
       id="linearGradient4572">
      <stop
         style="stop-color: rgb(199, 25, 7); stop-opacity: 1;"
         offset="0"
         id="stop4574" />
      <stop
         style="stop-color: rgb(232, 160, 108); stop-opacity: 1;"
         offset="1"
         id="stop4576" />
    </linearGradient>
    <linearGradient
       id="linearGradient7199">
      <stop
         style="stop-color: rgb(254, 254, 254); stop-opacity: 1;"
         offset="0"
         id="stop7201" />
      <stop
         style="stop-color: rgb(254, 254, 254); stop-opacity: 0;"
         offset="1"
         id="stop7203" />
    </linearGradient>
    <inkscape:perspective
       id="perspective3651"
       inkscape:persp3d-origin="177.91713 : 101.81116 : 1"
       inkscape:vp_z="355.83426 : 152.71674 : 1"
       inkscape:vp_y="0 : 1000 : 0"
       inkscape:vp_x="0 : 152.71674 : 1"
       sodipodi:type="inkscape:persp3d" />
    <linearGradient
       inkscape:collect="always"
       xlink:href="#linearGradient7199"
       id="linearGradient3684"
       gradientUnits="userSpaceOnUse"
       x1="478"
       y1="1272.3622"
       x2="472.11472"
       y2="1121.9014"
       gradientTransform="translate(240.729,-844.302)" />
    <inkscape:perspective
       id="perspective3701"
       inkscape:persp3d-origin="0.5 : 0.33333333 : 1"
       inkscape:vp_z="1 : 0.5 : 1"
       inkscape:vp_y="0 : 1000 : 0"
       inkscape:vp_x="0 : 0.5 : 1"
       sodipodi:type="inkscape:persp3d" />
    <inkscape:perspective
       id="perspective3725"
       inkscape:persp3d-origin="0.5 : 0.33333333 : 1"
       inkscape:vp_z="1 : 0.5 : 1"
       inkscape:vp_y="0 : 1000 : 0"
       inkscape:vp_x="0 : 0.5 : 1"
       sodipodi:type="inkscape:persp3d" />
    <inkscape:perspective
       id="perspective3749"
       inkscape:persp3d-origin="0.5 : 0.33333333 : 1"
       inkscape:vp_z="1 : 0.5 : 1"
       inkscape:vp_y="0 : 1000 : 0"
       inkscape:vp_x="0 : 0.5 : 1"
       sodipodi:type="inkscape:persp3d" />
    <inkscape:perspective
       id="perspective3773"
       inkscape:persp3d-origin="0.5 : 0.33333333 : 1"
       inkscape:vp_z="1 : 0.5 : 1"
       inkscape:vp_y="0 : 1000 : 0"
       inkscape:vp_x="0 : 0.5 : 1"
       sodipodi:type="inkscape:persp3d" />
    <inkscape:perspective
       id="perspective3795"
       inkscape:persp3d-origin="0.5 : 0.33333333 : 1"
       inkscape:vp_z="1 : 0.5 : 1"
       inkscape:vp_y="0 : 1000 : 0"
       inkscape:vp_x="0 : 0.5 : 1"
       sodipodi:type="inkscape:persp3d" />
    <linearGradient
       inkscape:collect="always"
       xlink:href="#linearGradient5248"
       id="linearGradient5256"
       x1="162.81747"
       y1="273.26703"
       x2="457.61368"
       y2="273.26703"
       gradientUnits="userSpaceOnUse" />
    <radialGradient
       inkscape:collect="always"
       xlink:href="#linearGradient5248"
       id="radialGradient5271"
       cx="304.21558"
       cy="277.26703"
       fx="304.21558"
       fy="277.26703"
       r="147.39812"
       gradientTransform="matrix(1,0,0,1.0833842,0,-23.119692)"
       gradientUnits="userSpaceOnUse" />
    <radialGradient
       inkscape:collect="always"
       xlink:href="#linearGradient5375"
       id="radialGradient2868"
       gradientUnits="userSpaceOnUse"
       gradientTransform="matrix(1.2356288,0.00598777,-0.00535559,1.1051715,-60.519427,-30.467625)"
       cx="262.69281"
       cy="257.4079"
       fx="262.69281"
       fy="257.4079"
       r="147.39812" />
  </defs>
  <sodipodi:namedview
     id="base"
     pagecolor="#ffffff"
     bordercolor="#666666"
     borderopacity="1.0"
     inkscape:pageopacity="0.0"
     inkscape:pageshadow="2"
     inkscape:zoom="4.3403895"
     inkscape:cx="50.584469"
     inkscape:cy="52.416642"
     inkscape:document-units="px"
     inkscape:current-layer="layer1"
     showgrid="false"
     inkscape:window-width="1366"
     inkscape:window-height="706"
     inkscape:window-x="-8"
     inkscape:window-y="-8"
     inkscape:window-maximized="1" />
  <metadata
     id="metadata7">
    <rdf:RDF>
      <cc:Work
         rdf:about="">
        <dc:format>image/svg+xml</dc:format>
        <dc:type
           rdf:resource="http://purl.org/dc/dcmitype/StillImage" />
        <dc:title />
      </cc:Work>
    </rdf:RDF>
  </metadata>
  <g
     inkscape:label="Camada 1"
     inkscape:groupmode="layer"
     id="layer1"
     transform="translate(-152.233,-111.677)">
    <g
       id="g2857"
       transform="matrix(0.32701516,0,0,0.32701516,102.9134,73.131796)">
      <path
         id="path44"
         inkscape:connector-curvature="0"
         sodipodi:nodetypes="ccccczssssccscsssssssscc"
         d="m 175.04469,162.3226 0,-1.38821 -2.9e-4,-2e-5 c 16.08035,-14.98455 24.55928,-31.32074 42.07991,-42.86075 0.38792,-0.2422 1.30145,-0.43382 1.30145,-0.43382 12.69512,4.97871 24.49935,10.08049 38.6961,13.36145 14.19686,3.28096 30.5362,6.24997 45.98427,5.8131 22.699,-0.64192 46.20834,-2.5989 67.67479,-10.41152 l 25.50821,-9.2836 c 0.62036,-0.22576 1.22508,0.53552 1.73524,0.95439 15.3576,12.60822 38.3491,45.63714 38.3491,45.63714 l 0,1.04116 c -6.56159,8.34166 -10.88361,17.73682 -15.09669,27.41698 -3.20305,7.35948 -2.70766,14.08154 -1.1279,21.69066 2.68764,14.33059 7.43013,28.08027 12.66733,41.64606 5.70646,14.78137 15.63075,28.71404 16.74515,44.76952 0.55574,8.00681 0.93287,16.22513 -0.0865,24.20677 -1.1415,8.93863 -4.92848,17.61683 -9.80419,25.16116 -6.68441,10.34292 -16.09874,18.64364 -26.28901,25.42145 -11.14801,7.41487 -23.44015,12.77884 -35.91974,17.52605 -13.36873,5.08547 -26.27365,11.13179 -39.04321,17.52606 -3.91485,1.96032 -9.07694,4.46658 -13.53499,6.85424 -8.31461,4.4532 -16.19378,9.8429 -22.99209,16.39814 l -1.30145,0.0868"
         style="fill:none;stroke:#000000;stroke-width:3;stroke-linecap:round;stroke-linejoin:miter;stroke-miterlimit:4;stroke-opacity:1;stroke-dasharray:none" />
      <path
         inkscape:connector-curvature="0"
         sodipodi:nodetypes="csczssssccscsssssssscccsssscssccc"
         id="path5274"
         d="m 169.04441,164.93435 c 0,0 25.09706,-32.25663 42.0799,-42.86073 0.38792,-0.2422 1.30145,-0.43382 1.30145,-0.43382 12.69512,4.97871 24.49935,10.08049 38.6961,13.36145 14.19686,3.28096 30.5362,6.24997 45.98427,5.8131 22.699,-0.64192 46.20834,-2.5989 67.67479,-10.41152 l 25.50821,-9.2836 c 0.62036,-0.22576 1.22508,0.53552 1.73524,0.95439 15.3576,12.60822 38.3491,45.63714 38.3491,45.63714 l 0,1.04116 c -6.56159,8.34166 -10.88361,17.73682 -15.09669,27.41698 -3.20305,7.35948 -2.70766,14.08154 -1.1279,21.69066 2.68764,14.33059 7.43013,28.08027 12.66733,41.64606 5.70646,14.78137 15.63075,28.71404 16.74515,44.76952 0.55574,8.00681 0.93287,16.22513 -0.0865,24.20677 -1.1415,8.93863 -4.92848,17.61683 -9.80419,25.16116 -6.68441,10.34292 -16.09874,18.64364 -26.28901,25.42145 -11.14801,7.41487 -23.44015,12.77884 -35.91974,17.52605 -13.36873,5.08547 -26.27365,11.13179 -39.04321,17.52606 -3.91485,1.96032 -9.07694,4.46658 -13.53499,6.85424 -8.31461,4.4532 -16.19378,9.8429 -22.99209,16.39814 l -1.30145,0.0868 c -7.33791,-6.55346 -15.37995,-12.12035 -23.51264,-17.61282 -14.36351,-9.90151 -30.80654,-15.58482 -47.3724,-20.47598 -21.92929,-6.47474 -40.53162,-18.68372 -55.44134,-35.83296 -8.65608,-9.95628 -13.77269,-23.2203 -15.53047,-36.35354 -0.73172,-5.46713 -0.42329,-16.08259 0.34701,-24.03325 1.6403,-16.93169 11.23138,-31.87491 19.17459,-46.59153 9.25769,-17.78144 15.66292,-39.17839 11.62621,-59.34564 -2.00801,-10.0321 -6.5956,-19.68024 -12.66733,-27.93756 l -2.16912,-2.94993 0,-1.38821 -2.9e-4,-2e-5 z"
         style="fill:url(#radialGradient2868);fill-opacity:1;fill-rule:nonzero;stroke:#000000;stroke-width:3;stroke-linecap:round;stroke-linejoin:miter;stroke-miterlimit:4;stroke-opacity:1;stroke-dasharray:none" />
      <path
         id="path5304"
         style="opacity:0.3;fill:none;stroke:#000000;stroke-width:5;stroke-linecap:round;stroke-linejoin:miter;stroke-miterlimit:4;stroke-opacity:1;stroke-dasharray:none"
         d="m 402.02437,118.07362 c 15.3576,12.60822 38.3491,45.63714 38.3491,45.63714 l 0,1.04116 c -6.56159,8.34166 -10.88361,17.73682 -15.09669,27.41698 -3.20305,7.35948 -2.70766,14.08154 -1.1279,21.69066 2.68764,14.33059 7.43013,28.08027 12.66733,41.64606 5.70646,14.78137 15.63075,28.71404 16.74515,44.76952 0.55574,8.00681 0.93287,16.22513 -0.0865,24.20677 -1.1415,8.93863 -4.92848,17.61683 -9.80419,25.16116 -6.68441,10.34292 -16.09874,18.64364 -26.28901,25.42145 -11.14801,7.41487 -23.44015,12.77884 -35.91974,17.52605 -13.36873,5.08547 -26.27365,11.13179 -39.04321,17.52606 -3.91485,1.96032 -9.07694,4.46658 -13.53499,6.85424 -8.31461,4.4532 -16.19378,9.8429 -22.99209,16.39814 l -1.30145,0.0868"
         sodipodi:nodetypes="cccscsssssssscc"
         inkscape:connector-curvature="0" />
      <g
         transform="matrix(0.897432,0,0,0.897432,446.82613,183.90874)"
         id="g7889"
         style="display:inline">
        <path
           sodipodi:nodetypes="ccscccscccscscscscscscscscscsscsscscscscscccccscscscscscssssssccsccccccccsccccccccscscccscssssscssscscscscscssscscsssccscccscssscscscscssssssscscssccscscsssccssscscsccscccccccssccc"
           d="m -167.47266,213.20572 3.89219,-71.60033 c 0,0 7.05219,9.89717 7.01547,10.43954 -1.14552,16.90494 6.18365,27.65824 9.1558,22.71416 1.4437,-1.90055 0.43975,-5.27471 6.50149,-4.39504 l 7.1397,8.34272 c 0,0 0.0746,-4.56015 1.78038,-4.31823 1.70572,0.24193 5.0426,5.28607 5.0426,5.28607 l 0.35449,-2.56011 2.6663,2.39016 c 0,0 -0.74712,-2.39908 1.69975,-1.75022 2.44681,0.64887 8.08757,4.34574 8.08757,4.34574 0,0 -2.72859,-9.13914 -1.83643,-11.36242 0.8922,-2.22334 5.40517,2.46912 5.40517,2.46912 0,0 -0.72087,-3.23368 0.38673,-3.58732 1.10762,-0.35362 4.04381,2.17286 4.04381,2.17286 0,0 -0.72491,-3.10531 0.37061,-3.0737 1.09553,0.0316 11.205068,1.09415 11.205068,1.09415 0,0 -4.22094,-5.26238 -3.60866,-7.30097 0.61226,-2.03866 6.05769,-0.85348 6.05769,-0.85348 0,0 -2.75892,-1.62177 -2.39241,-2.3823 0.36654,-0.76056 3.85859,-0.65987 3.85859,-0.65987 0,0 -9.08657,1.28023 -0.49136,-1.81338 8.59523,-3.09363 9.15108,-3.33465 9.15108,-3.33465 0,0 -8.98986,-1.80138 -8.36956,-4.09684 0.62034,-2.29541 10.85081,-5.08484 10.85081,-5.08484 0,0 -6.37185,-0.0552 -5.66292,-2.99064 0.21656,-0.89667 4.95413,-0.62828 4.95413,-0.62828 0,0 -3.55043,-2.60844 -1.24046,-4.14832 2.30994,-1.53986 12.12346,-1.96374 10.48016,-2.01114 -1.64333,-0.0473 -20.75885,-2.39776 -20.75885,-2.39776 0,0 3.92509,-2.42286 0.62836,-2.55221 -3.52034,-0.13814 -18.231578,6.43922 -19.614948,-3.64998 -1.54819,-11.29158 20.176368,-3.51016 20.920078,-2.99529 0,0 -4.97822,-2.97091 -2.87574,-4.45253 2.10251,-1.48156 11.28575,-1.47381 11.28575,-1.47381 0,0 -3.91291,-1.97636 -3.1899,-3.17641 0.723,-1.20006 6.08191,-1.62386 6.08191,-1.62386 0,0 -3.08925,-2.01681 -2.36827,-3.1527 0.72101,-1.13586 5.25221,-1.39074 5.25221,-1.39074 0,0 -2.11654,-2.4386 -1.80436,-3.65052 0.31215,-1.2119 3.05304,-1.19714 3.05304,-1.19714 l -0.27388,-0.008 1.50646,-4.326146 c 0,0 -6.61552,2.654916 -9.3221,1.548736 -4.61824,-2.60563 1.71065,-5.847832 4.57756,-7.597312 0,0 -3.57663,0.410956 -3.26248,-0.86515 0.3142,-1.276122 3.12557,-3.50837 3.12557,-3.50837 0,0 -2.69655,0.757619 -2.70658,-1.106178 -0.01004,-1.863814 2.66648,-6.348979 2.66648,-6.348979 -0.36646,0.790305 -8.32636,5.98533 -6.83099,-0.711044 0.28069,-1.256974 2.0542,-4.31036 2.0542,-4.31036 0,0 -2.2596,2.119637 -2.73883,-0.07896 -0.47927,-2.19857 0.82181,-8.715459 0.82181,-8.715459 -0.11732,0.70947 -6.77292,8.196026 -7.411,0.300412 -0.18672,-2.310389 0.77345,-7.174685 0.77345,-7.174685 0,0 -2.15889,1.094443 -3.01275,-0.08686 -0.85384,-1.181273 0.96675,-4.598757 -0.40267,-4.638232 -1.36943,-0.03949 -2.57379,1.210972 -3.55245,-0.359454 -0.97869,-1.570424 0.99899,-5.625936 -0.3624,-5.922233 -1.361338,-0.296293 -2.456728,-9.06703 -3.036738,-8.055625 -0.58,1.011408 -5.11539,10.133906 -7.50791,12.121174 -2.39252,1.987288 -2.06212,-4.171995 -2.06212,-4.171995 l -1.57899,6.637346 c 0,0 -3.12542,-5.230789 -3.43157,-4.211488 -0.30611,1.019303 0.44284,12.093376 0.44284,12.093376 l -2.44884,-0.584694 -2.83576,11.741813 -3.47991,-2.670634 -0.29016,9.244837 -1.64332,-0.04737 -1.07152,7.937167 c -0.84031,2.83921 -0.85818,13.243577 -5.55157,10.928931 -3.3675,2.481976 -9.12005,-1.270625 -8.71602,-5.410261 0.30073,-3.08052 5.03607,-8.355196 5.03607,-8.355196 l 7.27419,-4.673911 -1.05526,-1.315597 4.61592,-7.320878 -2.18306,-0.319981 6.51704,-6.752037 -6.84714,-0.197423 4.01978,-5.795882 c 0,0 -2.3107,2.611369 -4.39828,0.387256 -2.85156,-3.038093 0.50563,-7.3752 -0.46697,-11.322997 -3.61317,1.574404 -11.32388,11.42274 -12.44575,3.496695 -0.36157,-2.554494 1.51451,-4.582967 1.51451,-4.582967 l -4.09215,-0.632046 2.79544,-10.457817 c 0,0 -4.30774,4.052639 -5.30053,2.931587 -0.99283,-1.121004 1.32928,-7.415666 1.32928,-7.415666 0,0 -2.75504,2.619408 -3.60887,1.438168 -0.85387,-1.181306 1.289,-6.131681 0.19345,-6.163262 -1.09552,-0.0316 -3.98144,2.391264 -5.24414,1.133964 -1.26267,-1.257317 1.5629,-6.12374 0.19347,-6.163231 -1.36942,-0.03947 -3.17592,2.928588 -4.68021,0.636164 -1.50435,-2.292443 -1.33704,-9.805879 -1.33704,-9.805879 0,0 -3.88684,5.928248 -5.98533,7.281437 -2.09846,1.353189 -2.1024,-2.888013 -2.40854,-1.868694 -0.30614,1.019317 -1.0896,4.145388 -3.17398,5.049188 -2.08433,0.903769 -5.16347,-1.434036 -5.16347,-1.434036 0,0 1.0652,5.364162 -0.7493,6.404243 -1.8145,1.040081 -6.50877,-2.243972 -6.50877,-2.243972 0,0 0.32013,5.085666 -0.74928,6.404244 -1.06937,1.318628 -3.52826,-1.129848 -3.52826,-1.129848 0,0 0.84573,5.807648 -0.77344,7.174655 -1.61916,1.367006 -5.70323,-1.706631 -5.70323,-1.706631 0,0 2.28801,5.015967 1.69954,6.98892 -2.06802,6.933278 -9.23716,-2.655226 -9.23149,-2.836511 0,0 1.83245,9.306073 1.53835,12.124971 -0.29408,2.818898 -2.72267,-2.777356 -2.71465,-0.849407 0.008,1.928015 2.94648,7.518967 2.74673,8.561352 -1.31131,6.842809 -15.20126,-4.784729 -15.19248,-5.064675 0,0 1.3552,7.043254 0.53149,9.268571 -0.82371,2.225302 -3.82635,-0.367366 -3.82635,-0.367366 0,0 3.02275,4.135429 2.57766,5.215033 -0.44508,1.079539 -5.42935,-1.698752 -4.35799,-0.896779 1.07137,0.802006 4.1807,4.361617 4.75262,5.791798 0.57187,1.430164 -5.15547,-1.690872 -2.46497,-0.07107 l 17.18204,11.547866 c 3.57394,3.843777 9.46862,10.432764 6.41934,13.826164 -7.47389,8.31742 -15.03097,-1.302381 -14.70355,-10.705301 l -3.87135,-8.869085 -4.82515,-3.480552 c 0,0 0.12279,2.638138 -1.4178,1.501328 -1.54059,-1.136826 -4.74452,-6.048599 -4.74452,-6.048599 0,0 -1.23257,4.334058 -2.29587,3.275265 -1.06332,-1.058793 -5.43323,-5.939917 -7.47527,-6.384334 -2.04203,-0.444451 0.37843,5.408623 -0.69295,4.606617 -1.07136,-0.802006 -6.99205,-4.314139 -6.99205,-4.314139 0,0 2.54534,6.242211 -1.74808,3.291025 -4.29353,-2.951155 -8.37766,-3.840039 -8.37766,-3.840039 0,0 3.22818,4.141365 3.63297,6.530629 0.40474,2.389231 -2.01387,3.026345 -2.01387,3.026345 0,0 3.53419,3.122027 3.13335,4.973997 -0.40079,1.851939 -4.7366,2.433739 -4.7366,2.433739 0,0 4.21501,3.270205 3.94707,5.254522 -0.26792,1.984269 -6.60555,0.837682 -5.01857,2.682695 1.58683,1.844943 6.51872,4.107714 6.07358,7.372037 -0.44514,3.26435 -8.94969,5.65375 -7.85415,5.68532 1.09555,0.0316 2.57171,1.03804 2.94826,2.14128 0.37655,1.10327 -2.53745,2.24016 -1.44203,2.27175 1.09556,0.0316 3.86663,-0.91667 4.10833,0.11844 0.24164,1.03511 -3.14174,4.02198 -3.14174,4.02198 0,0 5.67507,0.42067 4.84126,2.96696 -0.83379,2.54632 -8.17642,7.21823 -8.17642,7.21823 0,0 5.57637,1.38171 7.03237,3.03016 1.45598,1.6484 -2.30395,3.53205 -1.20838,3.56365 1.09552,0.0316 3.83437,0.11055 3.83437,0.11055 0,0 -2.0381,3.79674 -0.11285,3.59522 2.76867,-3.05911 22.94653,-9.29633 22.8902,-2.14161 -0.0475,6.03115 -21.96043,7.45475 -21.90749,5.76842 0,0 4.11634,-0.13837 2.42473,1.35504 -1.69166,1.49349 -13.68645,8.08753 -13.68645,8.08753 0,0 9.7309,0.0236 12.84841,1.14158 3.11741,1.11802 -1.47411,3.29895 -0.37856,3.33052 1.09555,0.0316 5.59849,-1.50929 6.58126,-0.0673 0.98275,1.44203 -2.6503,5.83536 -2.6503,5.83536 l 7.1935,-2.10589 c 0,0 -3.51229,7.09568 -1.59509,7.15094 1.91717,0.0553 7.5299,-4.0882 9.9888,-3.82453 2.45893,0.2637 -2.07036,4.82396 -0.15314,4.87924 1.91721,0.0553 6.62162,-1.35129 6.62162,-1.35129 0,0 -6.54119,7.52243 -4.07621,7.5935 2.46497,0.0711 10.98764,-0.71131 10.98764,-0.71131 0,0 -2.25554,1.99122 -1.16,2.0228 1.09551,0.0316 5.53411,-1.63968 5.53411,-1.63968 l -0.99898,5.62595 c 0,0 4.84206,-4.20108 7.79774,-3.8877 6.22411,0.65992 2.44061,9.58064 2.44061,9.58064 l 5.66311,-5.7485 3.63305,-2.20855 0.97462,3.8836 3.44785,-5.04127 3.99542,3.71367 -1.83168,-9.75772 c 0,0 5.69824,9.96367 6.68954,9.4568 2.55093,-1.30443 2.62742,-15.69945 -0.4752,-25.79016 -2.18526,-7.10722 9.10287,-10.533 9.10287,-10.533 l -4.20634,72.87643 3.31079,-0.67563 z"
           style="fill:#000000;fill-opacity:1;fill-rule:evenodd;stroke:#313131;stroke-width:3.00300002;stroke-linecap:butt;stroke-linejoin:miter;stroke-miterlimit:4;stroke-opacity:1;stroke-dasharray:none;display:inline"
           id="path10836"
           inkscape:connector-curvature="0" />
        <path
           style="fill:none;stroke:#313131;stroke-width:3.00300002;stroke-linecap:butt;stroke-linejoin:miter;stroke-miterlimit:4;stroke-opacity:1;stroke-dasharray:none"
           d="m -163.55168,22.239808 0,0 c -2.90808,10.372555 -2.61528,14.766513 -3.65479,35.634166 -1.13512,22.787126 -2.36351,30.002827 -0.9137,49.339616 1.52038,20.27797 2.74109,31.97938 2.74109,31.97938 0,0 4.59218,-8.00436 11.87806,-12.79176 27.76382,-18.24303 31.85984,-12.88547 39.28895,-21.92871 14.243873,-17.338647 8.87725,-39.170551 13.70545,-52.994402"
           id="path6996"
           sodipodi:nodetypes="ccsscssc"
           inkscape:connector-curvature="0" />
        <path
           style="fill:none;stroke:#313131;stroke-width:3.00300002;stroke-linecap:butt;stroke-linejoin:miter;stroke-miterlimit:4;stroke-opacity:1;stroke-dasharray:none"
           d="m -166.48655,138.08549 c -16.21267,-7.34312 -11.06353,-0.10178 -28.13082,-8.02949 -17.30425,-8.03778 -27.53382,-17.53579 -37.46155,-32.893075 -9.52692,-14.737273 -0.83113,-7.336031 -12.04424,-20.848834"
           id="path6998"
           sodipodi:nodetypes="cssc"
           inkscape:connector-curvature="0" />
        <path
           style="fill:none;stroke:#313131;stroke-width:3.00300002;stroke-linecap:butt;stroke-linejoin:miter;stroke-miterlimit:4;stroke-opacity:1;stroke-dasharray:none"
           d="m -166.43072,138.27927 c -18.49678,2.72788 -19.9421,3.00741 -37.32361,9.13697 -10.02973,3.53697 -23.8721,2.56711 -38.37526,0"
           id="path7000"
           sodipodi:nodetypes="csc"
           inkscape:connector-curvature="0" />
        <path
           style="fill:none;stroke:#313131;stroke-width:3.00300002;stroke-linecap:butt;stroke-linejoin:miter;stroke-miterlimit:4;stroke-opacity:1;stroke-dasharray:none"
           d="m -164.32678,137.89172 c 0,0 6.25592,7.7456 24.53121,7.69712 18.44033,-0.0489 34.64122,-8.73885 53.132996,-6.92202"
           id="path7002"
           sodipodi:nodetypes="csc"
           inkscape:connector-curvature="0" />
      </g>
    </g>
  </g>
</svg>
