<?xml version="1.0" encoding="UTF-8" standalone="no"?>
<!-- Created with Inkscape (http://www.inkscape.org/) -->

<svg
   xmlns:osb="http://www.openswatchbook.org/uri/2009/osb"
   xmlns:dc="http://purl.org/dc/elements/1.1/"
   xmlns:cc="http://creativecommons.org/ns#"
   xmlns:rdf="http://www.w3.org/1999/02/22-rdf-syntax-ns#"
   xmlns:svg="http://www.w3.org/2000/svg"
   xmlns="http://www.w3.org/2000/svg"
   xmlns:xlink="http://www.w3.org/1999/xlink"
   xmlns:sodipodi="http://sodipodi.sourceforge.net/DTD/sodipodi-0.dtd"
   xmlns:inkscape="http://www.inkscape.org/namespaces/inkscape"
   width="100"
   height="105"
   id="svg2"
   version="1.1"
   inkscape:version="0.47 r22583"
   sodipodi:docname="erb2.svg">
  <defs
     id="defs4">
    <linearGradient
       inkscape:collect="always"
       id="linearGradient5375">
      <stop
         style="stop-color:#dfdbd2;stop-opacity:1;"
         offset="0"
         id="stop5377" />
      <stop
         style="stop-color:#dfdbd2;stop-opacity:0;"
         offset="1"
         id="stop5379" />
    </linearGradient>
    <linearGradient
       id="linearGradient5294">
      <stop
         style="stop-color:#dfdbd2;stop-opacity:0.48235294;"
         offset="0"
         id="stop5337" />
      <stop
         style="stop-color:#dfdbd2;stop-opacity:0.46666667;"
         offset="0.0625"
         id="stop5335" />
      <stop
         style="stop-color:#dfdbd2;stop-opacity:0.43529412;"
         offset="0.125"
         id="stop5333" />
      <stop
         style="stop-color:#dfdbd2;stop-opacity:0.37254902;"
         offset="0.25"
         id="stop5331" />
      <stop
         style="stop-color:#dfdbd2;stop-opacity:0.24705882;"
         offset="0.5"
         id="stop5329" />
      <stop
         style="stop-color:#dfdbd2;stop-opacity:0;"
         offset="1"
         id="stop5298" />
    </linearGradient>
    <linearGradient
       id="linearGradient5286"
       osb:paint="solid">
      <stop
         style="stop-color:#dfdbd2;stop-opacity:1;"
         offset="0"
         id="stop5288" />
    </linearGradient>
    <linearGradient
       id="linearGradient5248">
      <stop
         style="stop-color:#dfdbd2;stop-opacity:1;"
         offset="0"
         id="stop5250" />
      <stop
         style="stop-color:#dfdbd2;stop-opacity:0;"
         offset="1"
         id="stop5252" />
    </linearGradient>
    <inkscape:perspective
       sodipodi:type="inkscape:persp3d"
       inkscape:vp_x="0 : 526.18109 : 1"
       inkscape:vp_y="0 : 1000 : 0"
       inkscape:vp_z="744.09448 : 526.18109 : 1"
       inkscape:persp3d-origin="372.04724 : 350.78739 : 1"
       id="perspective10" />
    <inkscape:perspective
       id="perspective2824"
       inkscape:persp3d-origin="0.5 : 0.33333333 : 1"
       inkscape:vp_z="1 : 0.5 : 1"
       inkscape:vp_y="0 : 1000 : 0"
       inkscape:vp_x="0 : 0.5 : 1"
       sodipodi:type="inkscape:persp3d" />
    <linearGradient
       id="linearGradient7100">
      <stop
         style="stop-color: rgb(199, 25, 7); stop-opacity: 1;"
         offset="0"
         id="stop7102" />
      <stop
         style="stop-color: rgb(227, 141, 94); stop-opacity: 1;"
         offset="1"
         id="stop7104" />
    </linearGradient>
    <linearGradient
       id="linearGradient4572">
      <stop
         style="stop-color: rgb(199, 25, 7); stop-opacity: 1;"
         offset="0"
         id="stop4574" />
      <stop
         style="stop-color: rgb(232, 160, 108); stop-opacity: 1;"
         offset="1"
         id="stop4576" />
    </linearGradient>
    <linearGradient
       id="linearGradient7199">
      <stop
         style="stop-color: rgb(254, 254, 254); stop-opacity: 1;"
         offset="0"
         id="stop7201" />
      <stop
         style="stop-color: rgb(254, 254, 254); stop-opacity: 0;"
         offset="1"
         id="stop7203" />
    </linearGradient>
    <inkscape:perspective
       id="perspective3651"
       inkscape:persp3d-origin="177.91713 : 101.81116 : 1"
       inkscape:vp_z="355.83426 : 152.71674 : 1"
       inkscape:vp_y="0 : 1000 : 0"
       inkscape:vp_x="0 : 152.71674 : 1"
       sodipodi:type="inkscape:persp3d" />
    <linearGradient
       inkscape:collect="always"
       xlink:href="#linearGradient7199"
       id="linearGradient3684"
       gradientUnits="userSpaceOnUse"
       x1="478"
       y1="1272.3622"
       x2="472.11472"
       y2="1121.9014"
       gradientTransform="translate(240.729,-844.302)" />
    <inkscape:perspective
       id="perspective3701"
       inkscape:persp3d-origin="0.5 : 0.33333333 : 1"
       inkscape:vp_z="1 : 0.5 : 1"
       inkscape:vp_y="0 : 1000 : 0"
       inkscape:vp_x="0 : 0.5 : 1"
       sodipodi:type="inkscape:persp3d" />
    <inkscape:perspective
       id="perspective3725"
       inkscape:persp3d-origin="0.5 : 0.33333333 : 1"
       inkscape:vp_z="1 : 0.5 : 1"
       inkscape:vp_y="0 : 1000 : 0"
       inkscape:vp_x="0 : 0.5 : 1"
       sodipodi:type="inkscape:persp3d" />
    <inkscape:perspective
       id="perspective3749"
       inkscape:persp3d-origin="0.5 : 0.33333333 : 1"
       inkscape:vp_z="1 : 0.5 : 1"
       inkscape:vp_y="0 : 1000 : 0"
       inkscape:vp_x="0 : 0.5 : 1"
       sodipodi:type="inkscape:persp3d" />
    <inkscape:perspective
       id="perspective3773"
       inkscape:persp3d-origin="0.5 : 0.33333333 : 1"
       inkscape:vp_z="1 : 0.5 : 1"
       inkscape:vp_y="0 : 1000 : 0"
       inkscape:vp_x="0 : 0.5 : 1"
       sodipodi:type="inkscape:persp3d" />
    <inkscape:perspective
       id="perspective3795"
       inkscape:persp3d-origin="0.5 : 0.33333333 : 1"
       inkscape:vp_z="1 : 0.5 : 1"
       inkscape:vp_y="0 : 1000 : 0"
       inkscape:vp_x="0 : 0.5 : 1"
       sodipodi:type="inkscape:persp3d" />
    <linearGradient
       inkscape:collect="always"
       xlink:href="#linearGradient5248"
       id="linearGradient5256"
       x1="162.81747"
       y1="273.26703"
       x2="457.61368"
       y2="273.26703"
       gradientUnits="userSpaceOnUse" />
    <radialGradient
       inkscape:collect="always"
       xlink:href="#linearGradient5248"
       id="radialGradient5271"
       cx="304.21558"
       cy="277.26703"
       fx="304.21558"
       fy="277.26703"
       r="147.39812"
       gradientTransform="matrix(1,0,0,1.0833842,0,-23.119692)"
       gradientUnits="userSpaceOnUse" />
    <radialGradient
       inkscape:collect="always"
       xlink:href="#linearGradient5375"
       id="radialGradient5395"
       cx="262.69281"
       cy="257.4079"
       fx="262.69281"
       fy="257.4079"
       r="147.39812"
       gradientTransform="matrix(1.2356288,0.00598777,-0.00535559,1.1051715,-60.519427,-30.467625)"
       gradientUnits="userSpaceOnUse" />
    <radialGradient
       inkscape:collect="always"
       xlink:href="#linearGradient5375"
       id="radialGradient2891"
       gradientUnits="userSpaceOnUse"
       gradientTransform="matrix(1.2356288,0.00598777,-0.00535559,1.1051715,-60.519427,-30.467625)"
       cx="262.69281"
       cy="257.4079"
       fx="262.69281"
       fy="257.4079"
       r="147.39812" />
  </defs>
  <sodipodi:namedview
     id="base"
     pagecolor="#ffffff"
     bordercolor="#666666"
     borderopacity="1.0"
     inkscape:pageopacity="0.0"
     inkscape:pageshadow="2"
     inkscape:zoom="4.3403895"
     inkscape:cx="49.848099"
     inkscape:cy="50.837852"
     inkscape:document-units="px"
     inkscape:current-layer="layer1"
     showgrid="false"
     inkscape:window-width="1366"
     inkscape:window-height="706"
     inkscape:window-x="-8"
     inkscape:window-y="-8"
     inkscape:window-maximized="1" />
  <metadata
     id="metadata7">
    <rdf:RDF>
      <cc:Work
         rdf:about="">
        <dc:format>image/svg+xml</dc:format>
        <dc:type
           rdf:resource="http://purl.org/dc/dcmitype/StillImage" />
        <dc:title />
      </cc:Work>
    </rdf:RDF>
  </metadata>
  <g
     inkscape:label="Camada 1"
     inkscape:groupmode="layer"
     id="layer1"
     transform="translate(-152.233,-111.677)">
    <g
       id="g2868"
       transform="matrix(0.32701516,0,0,0.32701516,102.9134,73.131796)">
      <path
         id="path44"
         inkscape:connector-curvature="0"
         sodipodi:nodetypes="ccccczssssccscsssssssscc"
         d="m 175.04469,162.3226 0,-1.38821 -2.9e-4,-2e-5 c 16.08035,-14.98455 24.55928,-31.32074 42.07991,-42.86075 0.38792,-0.2422 1.30145,-0.43382 1.30145,-0.43382 12.69512,4.97871 24.49935,10.08049 38.6961,13.36145 14.19686,3.28096 30.5362,6.24997 45.98427,5.8131 22.699,-0.64192 46.20834,-2.5989 67.67479,-10.41152 l 25.50821,-9.2836 c 0.62036,-0.22576 1.22508,0.53552 1.73524,0.95439 15.3576,12.60822 38.3491,45.63714 38.3491,45.63714 l 0,1.04116 c -6.56159,8.34166 -10.88361,17.73682 -15.09669,27.41698 -3.20305,7.35948 -2.70766,14.08154 -1.1279,21.69066 2.68764,14.33059 7.43013,28.08027 12.66733,41.64606 5.70646,14.78137 15.63075,28.71404 16.74515,44.76952 0.55574,8.00681 0.93287,16.22513 -0.0865,24.20677 -1.1415,8.93863 -4.92848,17.61683 -9.80419,25.16116 -6.68441,10.34292 -16.09874,18.64364 -26.28901,25.42145 -11.14801,7.41487 -23.44015,12.77884 -35.91974,17.52605 -13.36873,5.08547 -26.27365,11.13179 -39.04321,17.52606 -3.91485,1.96032 -9.07694,4.46658 -13.53499,6.85424 -8.31461,4.4532 -16.19378,9.8429 -22.99209,16.39814 l -1.30145,0.0868"
         style="fill:none;stroke:#000000;stroke-width:3;stroke-linecap:round;stroke-linejoin:miter;stroke-miterlimit:4;stroke-opacity:1;stroke-dasharray:none" />
      <path
         inkscape:connector-curvature="0"
         sodipodi:nodetypes="csczssssccscsssssssscccsssscssccc"
         id="path5274"
         d="m 169.04441,164.93435 c 0,0 25.09706,-32.25663 42.0799,-42.86073 0.38792,-0.2422 1.30145,-0.43382 1.30145,-0.43382 12.69512,4.97871 24.49935,10.08049 38.6961,13.36145 14.19686,3.28096 30.5362,6.24997 45.98427,5.8131 22.699,-0.64192 46.20834,-2.5989 67.67479,-10.41152 l 25.50821,-9.2836 c 0.62036,-0.22576 1.22508,0.53552 1.73524,0.95439 15.3576,12.60822 38.3491,45.63714 38.3491,45.63714 l 0,1.04116 c -6.56159,8.34166 -10.88361,17.73682 -15.09669,27.41698 -3.20305,7.35948 -2.70766,14.08154 -1.1279,21.69066 2.68764,14.33059 7.43013,28.08027 12.66733,41.64606 5.70646,14.78137 15.63075,28.71404 16.74515,44.76952 0.55574,8.00681 0.93287,16.22513 -0.0865,24.20677 -1.1415,8.93863 -4.92848,17.61683 -9.80419,25.16116 -6.68441,10.34292 -16.09874,18.64364 -26.28901,25.42145 -11.14801,7.41487 -23.44015,12.77884 -35.91974,17.52605 -13.36873,5.08547 -26.27365,11.13179 -39.04321,17.52606 -3.91485,1.96032 -9.07694,4.46658 -13.53499,6.85424 -8.31461,4.4532 -16.19378,9.8429 -22.99209,16.39814 l -1.30145,0.0868 c -7.33791,-6.55346 -15.37995,-12.12035 -23.51264,-17.61282 -14.36351,-9.90151 -30.80654,-15.58482 -47.3724,-20.47598 -21.92929,-6.47474 -40.53162,-18.68372 -55.44134,-35.83296 -8.65608,-9.95628 -13.77269,-23.2203 -15.53047,-36.35354 -0.73172,-5.46713 -0.42329,-16.08259 0.34701,-24.03325 1.6403,-16.93169 11.23138,-31.87491 19.17459,-46.59153 9.25769,-17.78144 15.66292,-39.17839 11.62621,-59.34564 -2.00801,-10.0321 -6.5956,-19.68024 -12.66733,-27.93756 l -2.16912,-2.94993 0,-1.38821 -2.9e-4,-2e-5 z"
         style="fill:url(#radialGradient2891);fill-opacity:1;fill-rule:nonzero;stroke:#000000;stroke-width:3;stroke-linecap:round;stroke-linejoin:miter;stroke-miterlimit:4;stroke-opacity:1;stroke-dasharray:none" />
      <path
         id="path5304"
         style="opacity:0.3;fill:none;stroke:#000000;stroke-width:5;stroke-linecap:round;stroke-linejoin:miter;stroke-miterlimit:4;stroke-opacity:1;stroke-dasharray:none"
         d="m 402.02437,118.07362 c 15.3576,12.60822 38.3491,45.63714 38.3491,45.63714 l 0,1.04116 c -6.56159,8.34166 -10.88361,17.73682 -15.09669,27.41698 -3.20305,7.35948 -2.70766,14.08154 -1.1279,21.69066 2.68764,14.33059 7.43013,28.08027 12.66733,41.64606 5.70646,14.78137 15.63075,28.71404 16.74515,44.76952 0.55574,8.00681 0.93287,16.22513 -0.0865,24.20677 -1.1415,8.93863 -4.92848,17.61683 -9.80419,25.16116 -6.68441,10.34292 -16.09874,18.64364 -26.28901,25.42145 -11.14801,7.41487 -23.44015,12.77884 -35.91974,17.52605 -13.36873,5.08547 -26.27365,11.13179 -39.04321,17.52606 -3.91485,1.96032 -9.07694,4.46658 -13.53499,6.85424 -8.31461,4.4532 -16.19378,9.8429 -22.99209,16.39814 l -1.30145,0.0868"
         sodipodi:nodetypes="cccscsssssssscc"
         inkscape:connector-curvature="0" />
      <g
         style="fill:#000000"
         id="Crow"
         transform="matrix(0.41107647,0,0,0.41107647,181.42046,196.43568)">
        <g
           id="Tail"
           transform="matrix(0.985389,0,0,1,4.18383,0.49972)">
          <path
             id="use2579"
             d="m 262.23476,251.06111 c -1.12171,14.2054 -7.52469,26.8294 -8.6875,35.4063 -1.9078,0.1865 -3.80784,0.4059 -5.75,0.625 -9.91362,33.5307 -22.27343,77.0179 -25.78125,92.9374 4.81736,3.2659 8.81861,2.5697 13,0.7813 4.80932,-17.9222 23.00612,-92.8441 31.96875,-125.25 -2.06168,-1.3036 -3.67201,-2.8433 -4.75,-4.5 z"
             inkscape:connector-curvature="0" />
          <path
             id="path2509"
             d="m 273.73476,258.59241 c -7.33084,28.4203 -18.44492,101.3412 -20.21875,122.7187 6.17292,2.2613 10.18823,2.8177 16.09375,0.2813 1.82734,-30.8133 9.31187,-103.6575 12.125,-121.4376 -2.85483,-0.286 -5.55925,-0.804 -8,-1.5624 z"
             inkscape:connector-curvature="0" />
          <path
             id="path2511"
             d="m 267.79726,256.02981 c -8.67013,24.6466 -25.03892,102.3031 -30.40625,124.25 4.41156,3.949 7.82881,3.3847 13.78125,2.0313 2.066,-20.7466 15.9157,-97.6156 22.09375,-123.875 -2.02134,-0.6597 -3.85639,-1.478 -5.46875,-2.4063 z"
             inkscape:connector-curvature="0" />
          <path
             id="path2507"
             d="m 282.39101,260.21741 c -3.98447,27.7054 -8.04313,71.4338 -10.5625,121.4062 4.23768,2.5892 9.43914,2.9799 14.4375,3.1562 4.87175,-0.3545 10.41295,-0.2865 14.4375,-3.1562 -2.20176,-50.005 -7.02877,-93.2891 -10.59375,-121.375 -1.22707,0.0989 -2.47301,0.1562 -3.75,0.1562 -1.35376,0 -2.67153,-0.0765 -3.96875,-0.1874 z"
             inkscape:connector-curvature="0" />
          <use
             xlink:href="#path2509"
             height="763"
             width="603"
             y="0"
             x="0"
             id="use2595"
             transform="matrix(-1,0,0,1,572.708,0)" />
          <use
             xlink:href="#path2511"
             height="763"
             width="603"
             y="0"
             x="0"
             id="use2597"
             transform="matrix(-1,0,0,1,572.708,0)" />
          <use
             xlink:href="#use2579"
             height="763"
             width="603"
             y="0"
             x="0"
             id="use2593"
             transform="matrix(-1,0,0,1,572.708,0)" />
        </g>
        <path
           style="fill:#808080"
           id="Foot-1"
           d="m 337.72384,282.07964 c 7.55002,10.20514 16.71856,20.06938 26.54744,28.06486 19.45918,-2.72708 34.52615,-1.85953 53.99769,0.32667 6.3156,4.56791 5.22711,13.05079 -1.9107,18.5689 0.56311,-3.93766 -0.71283,-7.46022 -3.09816,-9.44347 -3.55353,-1.21408 -25.74966,-4.95149 -38.96081,-5.02107 11.29176,5.18695 35.57718,13.50256 48.67148,23.87297 2.31141,2.69692 -3.51458,13.09822 -6.08729,17.90513 -2.06568,3.85964 -0.39155,-8.43592 -3.21111,-12.89403 -3.22402,-3.10622 -5.40026,-5.30961 -42.93044,-24.21989 6.03758,7.54229 27.92661,25.80317 27.39994,33.4942 -1.56771,5.06973 -12.46139,9.67109 -13.78713,9.26576 -0.6988,-0.21363 4.17374,-6.53463 3.8172,-10.86204 -6.6803,-9.716 -17.38335,-23.84879 -25.95848,-31.41047 -2.79184,0.0387 -7.64831,1.17607 -12.24656,3.6718 -3.32564,1.31334 -4.49233,1.73936 -4.56348,6.80911 -1.71787,0.91339 -3.46456,-6.96557 -3.30721,-10.06058 3.42116,-3.84083 7.51242,-4.53027 12.91902,-6.76701 -17.88703,-18.14146 -27.38947,-28.60356 -30.30243,-29.23497 0,0 13.01103,-2.06587 13.01103,-2.06587 z"
           inkscape:connector-curvature="0" />
        <path
           style="fill:#808080"
           id="Foot-2"
           d="m 234.49093,282.07964 c -7.55002,10.20514 -16.71856,20.06938 -26.54744,28.06486 -19.45918,-2.72708 -34.52615,-1.85953 -53.99769,0.32667 -6.3156,4.56791 -5.22711,13.05079 1.9107,18.5689 -0.56311,-3.93766 0.71283,-7.46022 3.09816,-9.44347 3.55353,-1.21408 25.74966,-4.95149 38.96081,-5.02107 -11.29176,5.18695 -35.57718,13.50256 -48.67148,23.87297 -2.31141,2.69692 3.51458,13.09822 6.08729,17.90513 2.06568,3.85964 0.39155,-8.43592 3.21111,-12.89403 3.22402,-3.10622 5.40026,-5.30961 42.93044,-24.21989 -6.03758,7.54229 -27.92661,25.80317 -27.39994,33.4942 1.56771,5.06973 12.46139,9.67109 13.78713,9.26576 0.6988,-0.21363 -4.17374,-6.53463 -3.8172,-10.86204 6.6803,-9.716 17.38335,-23.84879 25.95848,-31.41047 2.79184,0.0387 7.64831,1.17607 12.24656,3.6718 3.32564,1.31334 4.49233,1.73936 4.56348,6.80911 1.71787,0.91339 3.46456,-6.96557 3.30721,-10.06058 -3.42116,-3.84083 -7.51242,-4.53027 -12.91902,-6.76701 17.88703,-18.14146 27.38947,-28.60356 30.30243,-29.23497 0,0 -13.01103,-2.06587 -13.01103,-2.06587 z"
           inkscape:connector-curvature="0" />
        <path
           id="Body"
           d="m 258.79726,60.37361 c -6.66466,0.11434 -17.57187,1.53034 -15.0625,6.96875 5.60181,8.53259 6.90297,14.37812 7.59375,21.6875 1.34885,7.80198 -1.8125,26.21875 -1.8125,26.21875 l -3.0625,20.46875 c -21.17744,53.93497 -6.13621,47.27807 -16.625,123.75005 -1.48426,12.6162 -12.28125,29.9374 -12.28125,29.9374 17.45712,-1.6682 26.31683,-2.9903 35.6875,-3.9062 1.16788,-8.6142 7.6074,-21.3125 8.6875,-35.5938 3.27983,5.6811 12.98353,9.8126 24.4375,9.8126 11.64406,0 21.47767,-4.2666 24.59375,-10.0938 0.005,0.0222 -0.005,0.0396 0,0.0625 1.02987,14.3709 7.54485,27.154 8.71875,35.8125 9.37067,0.9159 18.2304,2.2381 35.6875,3.9062 0,0 -10.79697,-17.3211 -12.28125,-29.9374 -10.48879,-76.47199 4.55246,-69.81508 -16.625,-123.75005 l -1.96875,-3.40625 c -1.76753,-6.39123 -4.8986,-17.41771 -6.5625,-24.0625 -3.85594,-12.45805 -8.6755,-22.96927 -12.40625,-27.03125 -4.84056,-7.15793 -10.88622,-11.70613 -18.84375,-14.8125 -8.65566,-2.59687 -18.78094,-6.05888 -27.875,-6.03125 z"
           inkscape:connector-curvature="0" />
        <path
           id="Wing-1"
           d="m 29.624806,56.408189 c 0,3.302719 15.905547,29.822442 20.047278,34.314909 24.523349,13.242082 55.236516,14.009252 82.366946,15.244862 1.25393,-0.0225 2.43455,0.94498 2.45705,2.17784 0.0236,1.29379 -0.86793,1.82581 -2.42913,2.31745 -41.481318,1.67645 -60.018351,-5.05044 -75.163327,-7.65036 0.855486,4.3179 10.983523,19.28265 14.351394,20.32649 16.105003,6.58258 48.213233,4.25199 74.269853,4.83033 1.51907,0.1388 2.43021,0.47208 2.40121,1.75903 -0.031,1.37644 -1.0414,1.60269 -2.42913,1.92654 -19.5921,1.88251 -44.77574,2.59289 -64.246215,0.69803 -0.03003,6.21077 13.869026,17.18034 18.455775,19.37717 16.93124,1.7032 38.22008,-1.31315 58.99708,-2.9317 1.00863,0.004 1.62082,-0.0792 1.75902,0.69802 0.33462,1.25228 -0.35755,1.20091 -0.92139,1.42397 -17.91432,3.39144 -37.57352,5.99038 -55.39527,5.77965 1.28794,5.33616 12.06567,13.99468 17.72984,16.92013 13.62409,0.87521 44.04081,-6.2072 53.94337,-9.07433 0.8985,-0.26263 2.08039,-0.57472 2.37328,0.41882 0.31165,1.05714 -0.24819,1.46874 -1.22852,1.92655 -3.54035,1.39179 -30.27014,9.07213 -46.32094,11.58721 2.49235,6.11068 15.91055,9.6142 18.53954,10.91711 13.1025,-0.35323 38.85693,-11.40072 41.79774,-12.39692 1.08745,-0.18285 2.97374,-0.84255 3.54597,0.30713 0.67686,1.35934 0.0644,1.99457 -0.97724,2.73626 -3.23329,2.09316 -22.1819,9.15555 -37.19077,12.62029 -3.44341,2.26085 14.48747,10.41574 20.04728,10.80543 17.02691,-4.1912 28.37089,-13.04528 33.97986,-15.21695 0.95508,-0.3423 2.30878,-0.53819 2.73625,-0.0558 0.35709,0.33312 0.61505,1.65096 -0.11168,2.56873 -7.23491,6.3139 -20.08291,13.0736 -28.61902,17.19934 1.91773,3.65261 10.45771,7.29966 17.33894,7.76203 5.39389,0.36243 18.71325,-13.08937 21.66669,-14.60268 1.25867,-0.81224 2.43426,-1.19034 3.51805,-0.69802 0.81586,0.37061 1.06796,1.24996 0.6701,2.65249 -5.49096,5.56415 -11.71391,11.13575 -16.7526,15.97081 8.40748,4.14598 11.22707,6.42577 19.86859,11.44594 3.64737,-12.88943 -2.46424,-53.34404 8.90961,-80.9748 -20.06542,-1.04811 -33.5544,-8.24128 -45.94961,-19.87418 -8.71876,-8.90364 -13.28121,-19.01007 -14.8819,-35.264221 C 177.9358,85.820841 172.8931,86.295453 163.75729,85.501871 101.77344,79.709769 70.943999,70.555737 29.624806,56.408189 z"
           inkscape:connector-curvature="0" />
        <path
           id="Wing-2"
           d="m 542.59726,56.408189 c 0,3.302719 -15.90555,29.822442 -20.04728,34.314909 -24.52335,13.242082 -55.23652,14.009252 -82.36695,15.244862 -1.25393,-0.0225 -2.43455,0.94498 -2.45705,2.17784 -0.0236,1.29379 0.86793,1.82581 2.42913,2.31745 41.48132,1.67645 60.01836,-5.05044 75.16333,-7.65036 -0.85548,4.3179 -10.98352,19.28265 -14.35139,20.32649 -16.10501,6.58258 -48.21324,4.25199 -74.26986,4.83033 -1.51907,0.1388 -2.43021,0.47208 -2.40121,1.75903 0.031,1.37644 1.0414,1.60269 2.42913,1.92654 19.5921,1.88251 44.77574,2.59289 64.24622,0.69803 0.03,6.21077 -13.86903,17.18034 -18.45578,19.37717 -16.93124,1.7032 -38.22008,-1.31315 -58.99708,-2.9317 -1.00863,0.004 -1.62082,-0.0792 -1.75902,0.69802 -0.33462,1.25228 0.35755,1.20091 0.92139,1.42397 17.91432,3.39144 37.57352,5.99038 55.39527,5.77965 -1.28794,5.33616 -12.06567,13.99468 -17.72984,16.92013 -13.62409,0.87521 -44.04081,-6.2072 -53.94337,-9.07433 -0.8985,-0.26263 -2.08039,-0.57472 -2.37328,0.41882 -0.31165,1.05714 0.24819,1.46874 1.22852,1.92655 3.54035,1.39179 30.27014,9.07213 46.32094,11.58721 -2.49235,6.11068 -15.91055,9.6142 -18.53954,10.91711 -13.1025,-0.35323 -38.85693,-11.40072 -41.79774,-12.39692 -1.08745,-0.18285 -2.97374,-0.84255 -3.54597,0.30713 -0.67686,1.35934 -0.0644,1.99457 0.97724,2.73626 3.23329,2.09316 22.1819,9.15555 37.19077,12.62029 3.44341,2.26085 -14.48747,10.41574 -20.04728,10.80543 -17.02691,-4.1912 -28.37089,-13.04528 -33.97986,-15.21695 -0.95508,-0.3423 -2.30878,-0.53819 -2.73625,-0.0558 -0.35709,0.33312 -0.61505,1.65096 0.11168,2.56873 7.23491,6.3139 20.08291,13.0736 28.61902,17.19934 -1.91773,3.65261 -10.45771,7.29966 -17.33894,7.76203 -5.39389,0.36243 -18.71325,-13.08937 -21.66669,-14.60268 -1.25867,-0.81224 -2.43426,-1.19034 -3.51805,-0.69802 -0.81586,0.37061 -1.06796,1.24996 -0.6701,2.65249 5.49096,5.56415 11.71391,11.13575 16.7526,15.97081 -8.40748,4.14598 -11.22706,5.81708 -19.86858,10.83725 -3.34303,-30.23714 3.98596,-49.0832 -7.99658,-79.75742 20.06542,-1.04811 32.64136,-8.84997 45.03657,-20.48287 8.71876,-8.90364 13.28121,-19.01007 14.8819,-35.264221 0.84298,-8.559908 5.88568,-8.085296 15.02149,-8.878878 61.98385,-5.792102 92.8133,-14.946134 134.13249,-29.093682 z"
           inkscape:connector-curvature="0" />
        <path
           style="fill:#808080"
           id="Beak-1"
           d="m 241.93624,68.883917 c -4.62298,-0.69723 -12.59867,-0.67961 -20.42042,-0.346712 -24.19481,1.029736 -35.49031,6.946379 -35.59701,22.797269 0,0 31.6131,-2.330854 64.14467,1.078278 -0.87131,-16.911406 -5.91796,-21.686969 -8.12724,-23.528835 z"
           inkscape:connector-curvature="0" />
        <path
           style="fill:#808080"
           id="Beak-2"
           d="m 249.98508,95.078511 c -25.41762,1.051018 -32.53756,0.629282 -48.06027,0.130063 0.16473,3.664896 0.92657,8.719296 5.29536,9.568246 1.54375,0.29998 16.83412,5.26981 41.30479,4.30849 l 1.46012,-14.006799 z"
           inkscape:connector-curvature="0" />
        <path
           style="fill:#ffffff"
           id="Eye-1"
           d="m 264.50676,69.961373 c 4.87132,0.134432 13.30458,4.170781 13.03302,10.386943 -0.27579,6.312451 -7.90923,10.22987 -13.41852,9.796545 -5.60521,-0.440875 -10.3683,-8.33957 -10.38561,-12.188164 -0.0177,-3.941132 5.80336,-8.132418 10.77111,-7.995324 z"
           inkscape:connector-curvature="0" />
        <path
           id="Eye-2"
           d="m 265.8125,73.96875 c -0.0616,-0.01565 -0.1173,0.05638 -0.1875,0.0625 -0.19674,0.01715 -0.42217,0.03623 -0.53125,0.15625 -0.148,0.162851 -0.17976,0.31852 -0.21875,0.46875 -0.078,0.30046 -0.0916,0.634488 -0.0937,1.03125 -0.004,0.793523 0.0756,1.808549 0.15625,2.84375 0.0807,1.035201 0.15181,2.062599 0.15625,2.8125 8.2e-4,0.139136 -0.0263,0.1962 -0.0312,0.3125 -0.11654,-0.148895 -0.20465,-0.26576 -0.34375,-0.46875 -0.46971,-0.68544 -1.06125,-1.625172 -1.625,-2.5625 -0.56375,-0.937328 -1.11091,-1.890987 -1.59375,-2.59375 -0.24142,-0.351381 -0.47081,-0.618166 -0.6875,-0.84375 -0.10835,-0.112792 -0.20012,-0.227918 -0.34375,-0.3125 -0.14363,-0.08458 -0.37873,-0.163521 -0.65625,-0.0625 -0.8397,0.305764 -1.37346,0.711007 -1.65625,1.25 -0.28279,0.538993 -0.33527,1.070778 -0.5,1.71875 -0.40114,1.577711 0.17426,3.206783 1.34375,4.53125 1.16949,1.324467 2.93546,2.404635 5.03125,2.9375 2.09579,0.533049 4.15236,0.44861 5.8125,-0.15625 1.66014,-0.60486 2.9426,-1.766158 3.34375,-3.34375 0.4186,-1.646214 -0.46278,-3.362896 -1.875,-4.75 -1.41222,-1.387104 -3.40092,-2.497663 -5.5,-3.03125 z"
           inkscape:connector-curvature="0" />
      </g>
    </g>
  </g>
</svg>
