<?xml version="1.0" encoding="UTF-8" standalone="no"?>
<!-- Created with Inkscape (http://www.inkscape.org/) -->

<svg
   xmlns:osb="http://www.openswatchbook.org/uri/2009/osb"
   xmlns:dc="http://purl.org/dc/elements/1.1/"
   xmlns:cc="http://creativecommons.org/ns#"
   xmlns:rdf="http://www.w3.org/1999/02/22-rdf-syntax-ns#"
   xmlns:svg="http://www.w3.org/2000/svg"
   xmlns="http://www.w3.org/2000/svg"
   xmlns:xlink="http://www.w3.org/1999/xlink"
   xmlns:sodipodi="http://sodipodi.sourceforge.net/DTD/sodipodi-0.dtd"
   xmlns:inkscape="http://www.inkscape.org/namespaces/inkscape"
   width="100"
   height="105"
   id="svg2"
   version="1.1"
   inkscape:version="0.47 r22583"
   sodipodi:docname="erb3.svg">
  <defs
     id="defs4">
    <linearGradient
       inkscape:collect="always"
       id="linearGradient5375">
      <stop
         style="stop-color:#dfdbd2;stop-opacity:1;"
         offset="0"
         id="stop5377" />
      <stop
         style="stop-color:#dfdbd2;stop-opacity:0;"
         offset="1"
         id="stop5379" />
    </linearGradient>
    <linearGradient
       id="linearGradient5294">
      <stop
         style="stop-color:#dfdbd2;stop-opacity:0.48235294;"
         offset="0"
         id="stop5337" />
      <stop
         style="stop-color:#dfdbd2;stop-opacity:0.46666667;"
         offset="0.0625"
         id="stop5335" />
      <stop
         style="stop-color:#dfdbd2;stop-opacity:0.43529412;"
         offset="0.125"
         id="stop5333" />
      <stop
         style="stop-color:#dfdbd2;stop-opacity:0.37254902;"
         offset="0.25"
         id="stop5331" />
      <stop
         style="stop-color:#dfdbd2;stop-opacity:0.24705882;"
         offset="0.5"
         id="stop5329" />
      <stop
         style="stop-color:#dfdbd2;stop-opacity:0;"
         offset="1"
         id="stop5298" />
    </linearGradient>
    <linearGradient
       id="linearGradient5286"
       osb:paint="solid">
      <stop
         style="stop-color:#dfdbd2;stop-opacity:1;"
         offset="0"
         id="stop5288" />
    </linearGradient>
    <linearGradient
       id="linearGradient5248">
      <stop
         style="stop-color:#dfdbd2;stop-opacity:1;"
         offset="0"
         id="stop5250" />
      <stop
         style="stop-color:#dfdbd2;stop-opacity:0;"
         offset="1"
         id="stop5252" />
    </linearGradient>
    <inkscape:perspective
       sodipodi:type="inkscape:persp3d"
       inkscape:vp_x="0 : 526.18109 : 1"
       inkscape:vp_y="0 : 1000 : 0"
       inkscape:vp_z="744.09448 : 526.18109 : 1"
       inkscape:persp3d-origin="372.04724 : 350.78739 : 1"
       id="perspective10" />
    <inkscape:perspective
       id="perspective2824"
       inkscape:persp3d-origin="0.5 : 0.33333333 : 1"
       inkscape:vp_z="1 : 0.5 : 1"
       inkscape:vp_y="0 : 1000 : 0"
       inkscape:vp_x="0 : 0.5 : 1"
       sodipodi:type="inkscape:persp3d" />
    <linearGradient
       id="linearGradient7100">
      <stop
         style="stop-color: rgb(199, 25, 7); stop-opacity: 1;"
         offset="0"
         id="stop7102" />
      <stop
         style="stop-color: rgb(227, 141, 94); stop-opacity: 1;"
         offset="1"
         id="stop7104" />
    </linearGradient>
    <linearGradient
       id="linearGradient4572">
      <stop
         style="stop-color: rgb(199, 25, 7); stop-opacity: 1;"
         offset="0"
         id="stop4574" />
      <stop
         style="stop-color: rgb(232, 160, 108); stop-opacity: 1;"
         offset="1"
         id="stop4576" />
    </linearGradient>
    <linearGradient
       id="linearGradient7199">
      <stop
         style="stop-color: rgb(254, 254, 254); stop-opacity: 1;"
         offset="0"
         id="stop7201" />
      <stop
         style="stop-color: rgb(254, 254, 254); stop-opacity: 0;"
         offset="1"
         id="stop7203" />
    </linearGradient>
    <inkscape:perspective
       id="perspective3651"
       inkscape:persp3d-origin="177.91713 : 101.81116 : 1"
       inkscape:vp_z="355.83426 : 152.71674 : 1"
       inkscape:vp_y="0 : 1000 : 0"
       inkscape:vp_x="0 : 152.71674 : 1"
       sodipodi:type="inkscape:persp3d" />
    <linearGradient
       inkscape:collect="always"
       xlink:href="#linearGradient7199"
       id="linearGradient3684"
       gradientUnits="userSpaceOnUse"
       x1="478"
       y1="1272.3622"
       x2="472.11472"
       y2="1121.9014"
       gradientTransform="translate(240.729,-844.302)" />
    <inkscape:perspective
       id="perspective3701"
       inkscape:persp3d-origin="0.5 : 0.33333333 : 1"
       inkscape:vp_z="1 : 0.5 : 1"
       inkscape:vp_y="0 : 1000 : 0"
       inkscape:vp_x="0 : 0.5 : 1"
       sodipodi:type="inkscape:persp3d" />
    <inkscape:perspective
       id="perspective3725"
       inkscape:persp3d-origin="0.5 : 0.33333333 : 1"
       inkscape:vp_z="1 : 0.5 : 1"
       inkscape:vp_y="0 : 1000 : 0"
       inkscape:vp_x="0 : 0.5 : 1"
       sodipodi:type="inkscape:persp3d" />
    <inkscape:perspective
       id="perspective3749"
       inkscape:persp3d-origin="0.5 : 0.33333333 : 1"
       inkscape:vp_z="1 : 0.5 : 1"
       inkscape:vp_y="0 : 1000 : 0"
       inkscape:vp_x="0 : 0.5 : 1"
       sodipodi:type="inkscape:persp3d" />
    <inkscape:perspective
       id="perspective3773"
       inkscape:persp3d-origin="0.5 : 0.33333333 : 1"
       inkscape:vp_z="1 : 0.5 : 1"
       inkscape:vp_y="0 : 1000 : 0"
       inkscape:vp_x="0 : 0.5 : 1"
       sodipodi:type="inkscape:persp3d" />
    <inkscape:perspective
       id="perspective3795"
       inkscape:persp3d-origin="0.5 : 0.33333333 : 1"
       inkscape:vp_z="1 : 0.5 : 1"
       inkscape:vp_y="0 : 1000 : 0"
       inkscape:vp_x="0 : 0.5 : 1"
       sodipodi:type="inkscape:persp3d" />
    <linearGradient
       inkscape:collect="always"
       xlink:href="#linearGradient5248"
       id="linearGradient5256"
       x1="162.81747"
       y1="273.26703"
       x2="457.61368"
       y2="273.26703"
       gradientUnits="userSpaceOnUse" />
    <radialGradient
       inkscape:collect="always"
       xlink:href="#linearGradient5248"
       id="radialGradient5271"
       cx="304.21558"
       cy="277.26703"
       fx="304.21558"
       fy="277.26703"
       r="147.39812"
       gradientTransform="matrix(1,0,0,1.0833842,0,-23.119692)"
       gradientUnits="userSpaceOnUse" />
    <radialGradient
       inkscape:collect="always"
       xlink:href="#linearGradient5375"
       id="radialGradient5395"
       cx="262.69281"
       cy="257.4079"
       fx="262.69281"
       fy="257.4079"
       r="147.39812"
       gradientTransform="matrix(1.2356288,0.00598777,-0.00535559,1.1051715,-60.519427,-30.467625)"
       gradientUnits="userSpaceOnUse" />
    <radialGradient
       inkscape:collect="always"
       xlink:href="#linearGradient5375"
       id="radialGradient2862"
       gradientUnits="userSpaceOnUse"
       gradientTransform="matrix(1.2356288,0.00598777,-0.00535559,1.1051715,-60.519427,-30.467625)"
       cx="262.69281"
       cy="257.4079"
       fx="262.69281"
       fy="257.4079"
       r="147.39812" />
  </defs>
  <sodipodi:namedview
     id="base"
     pagecolor="#ffffff"
     bordercolor="#666666"
     borderopacity="1.0"
     inkscape:pageopacity="0.0"
     inkscape:pageshadow="2"
     inkscape:zoom="2.2316599"
     inkscape:cx="49.742049"
     inkscape:cy="51.206037"
     inkscape:document-units="px"
     inkscape:current-layer="layer1"
     showgrid="false"
     inkscape:window-width="550"
     inkscape:window-height="483"
     inkscape:window-x="125"
     inkscape:window-y="125"
     inkscape:window-maximized="0" />
  <metadata
     id="metadata7">
    <rdf:RDF>
      <cc:Work
         rdf:about="">
        <dc:format>image/svg+xml</dc:format>
        <dc:type
           rdf:resource="http://purl.org/dc/dcmitype/StillImage" />
        <dc:title />
      </cc:Work>
    </rdf:RDF>
  </metadata>
  <g
     inkscape:label="Camada 1"
     inkscape:groupmode="layer"
     id="layer1"
     transform="translate(-152.233,-111.677)">
    <g
       id="g2854"
       transform="matrix(0.32701516,0,0,0.32701516,102.9134,73.131796)">
      <path
         id="path44"
         inkscape:connector-curvature="0"
         sodipodi:nodetypes="ccccczssssccscsssssssscc"
         d="m 175.04469,162.3226 0,-1.38821 -2.9e-4,-2e-5 c 16.08035,-14.98455 24.55928,-31.32074 42.07991,-42.86075 0.38792,-0.2422 1.30145,-0.43382 1.30145,-0.43382 12.69512,4.97871 24.49935,10.08049 38.6961,13.36145 14.19686,3.28096 30.5362,6.24997 45.98427,5.8131 22.699,-0.64192 46.20834,-2.5989 67.67479,-10.41152 l 25.50821,-9.2836 c 0.62036,-0.22576 1.22508,0.53552 1.73524,0.95439 15.3576,12.60822 38.3491,45.63714 38.3491,45.63714 l 0,1.04116 c -6.56159,8.34166 -10.88361,17.73682 -15.09669,27.41698 -3.20305,7.35948 -2.70766,14.08154 -1.1279,21.69066 2.68764,14.33059 7.43013,28.08027 12.66733,41.64606 5.70646,14.78137 15.63075,28.71404 16.74515,44.76952 0.55574,8.00681 0.93287,16.22513 -0.0865,24.20677 -1.1415,8.93863 -4.92848,17.61683 -9.80419,25.16116 -6.68441,10.34292 -16.09874,18.64364 -26.28901,25.42145 -11.14801,7.41487 -23.44015,12.77884 -35.91974,17.52605 -13.36873,5.08547 -26.27365,11.13179 -39.04321,17.52606 -3.91485,1.96032 -9.07694,4.46658 -13.53499,6.85424 -8.31461,4.4532 -16.19378,9.8429 -22.99209,16.39814 l -1.30145,0.0868"
         style="fill:none;stroke:#000000;stroke-width:3;stroke-linecap:round;stroke-linejoin:miter;stroke-miterlimit:4;stroke-opacity:1;stroke-dasharray:none" />
      <path
         inkscape:connector-curvature="0"
         sodipodi:nodetypes="csczssssccscsssssssscccsssscssccc"
         id="path5274"
         d="m 169.04441,164.93435 c 0,0 25.09706,-32.25663 42.0799,-42.86073 0.38792,-0.2422 1.30145,-0.43382 1.30145,-0.43382 12.69512,4.97871 24.49935,10.08049 38.6961,13.36145 14.19686,3.28096 30.5362,6.24997 45.98427,5.8131 22.699,-0.64192 46.20834,-2.5989 67.67479,-10.41152 l 25.50821,-9.2836 c 0.62036,-0.22576 1.22508,0.53552 1.73524,0.95439 15.3576,12.60822 38.3491,45.63714 38.3491,45.63714 l 0,1.04116 c -6.56159,8.34166 -10.88361,17.73682 -15.09669,27.41698 -3.20305,7.35948 -2.70766,14.08154 -1.1279,21.69066 2.68764,14.33059 7.43013,28.08027 12.66733,41.64606 5.70646,14.78137 15.63075,28.71404 16.74515,44.76952 0.55574,8.00681 0.93287,16.22513 -0.0865,24.20677 -1.1415,8.93863 -4.92848,17.61683 -9.80419,25.16116 -6.68441,10.34292 -16.09874,18.64364 -26.28901,25.42145 -11.14801,7.41487 -23.44015,12.77884 -35.91974,17.52605 -13.36873,5.08547 -26.27365,11.13179 -39.04321,17.52606 -3.91485,1.96032 -9.07694,4.46658 -13.53499,6.85424 -8.31461,4.4532 -16.19378,9.8429 -22.99209,16.39814 l -1.30145,0.0868 c -7.33791,-6.55346 -15.37995,-12.12035 -23.51264,-17.61282 -14.36351,-9.90151 -30.80654,-15.58482 -47.3724,-20.47598 -21.92929,-6.47474 -40.53162,-18.68372 -55.44134,-35.83296 -8.65608,-9.95628 -13.77269,-23.2203 -15.53047,-36.35354 -0.73172,-5.46713 -0.42329,-16.08259 0.34701,-24.03325 1.6403,-16.93169 11.23138,-31.87491 19.17459,-46.59153 9.25769,-17.78144 15.66292,-39.17839 11.62621,-59.34564 -2.00801,-10.0321 -6.5956,-19.68024 -12.66733,-27.93756 l -2.16912,-2.94993 0,-1.38821 -2.9e-4,-2e-5 z"
         style="fill:url(#radialGradient2862);fill-opacity:1;fill-rule:nonzero;stroke:#000000;stroke-width:3;stroke-linecap:round;stroke-linejoin:miter;stroke-miterlimit:4;stroke-opacity:1;stroke-dasharray:none" />
      <path
         id="path5304"
         style="opacity:0.3;fill:none;stroke:#000000;stroke-width:5;stroke-linecap:round;stroke-linejoin:miter;stroke-miterlimit:4;stroke-opacity:1;stroke-dasharray:none"
         d="m 402.02437,118.07362 c 15.3576,12.60822 38.3491,45.63714 38.3491,45.63714 l 0,1.04116 c -6.56159,8.34166 -10.88361,17.73682 -15.09669,27.41698 -3.20305,7.35948 -2.70766,14.08154 -1.1279,21.69066 2.68764,14.33059 7.43013,28.08027 12.66733,41.64606 5.70646,14.78137 15.63075,28.71404 16.74515,44.76952 0.55574,8.00681 0.93287,16.22513 -0.0865,24.20677 -1.1415,8.93863 -4.92848,17.61683 -9.80419,25.16116 -6.68441,10.34292 -16.09874,18.64364 -26.28901,25.42145 -11.14801,7.41487 -23.44015,12.77884 -35.91974,17.52605 -13.36873,5.08547 -26.27365,11.13179 -39.04321,17.52606 -3.91485,1.96032 -9.07694,4.46658 -13.53499,6.85424 -8.31461,4.4532 -16.19378,9.8429 -22.99209,16.39814 l -1.30145,0.0868"
         sodipodi:nodetypes="cccscsssssssscc"
         inkscape:connector-curvature="0" />
      <g
         id="g2338"
         transform="matrix(0.38463015,0,0,0.38463015,135.31651,112.38348)">
        <path
           style="fill:#000000"
           id="path2474"
           d="m 213.89723,272.33639 c -2.45295,-1.35476 -4.62037,-2.94458 -4.81649,-3.53293 -0.66364,-1.99094 9.34455,-6.17081 14.77527,-6.17081 7.5521,0 16.00113,4.09011 16.00113,7.74602 -2.39387,4.21366 -5.54972,10.73307 -10.38492,12.25398 -6.21597,-1.02246 -10.26982,-7.06442 -15.57499,-10.29626 z m 401.48699,356.3816 c -0.8576,-3.71191 2.71797,-6.42006 2.99857,-9.89302 -0.75033,-0.75034 -7.52565,5.89281 -7.52565,7.37885 0,1.3107 -5.66067,2.75658 -7.16125,1.82917 -1.35651,-0.83837 -0.0467,-5.98659 3.15493,-12.40034 2.37708,-5.0144 4.2663,-10.15039 7.17548,-14.8932 2.79099,-4.36811 2.93082,-5.09901 2.69891,-14.1068 -0.21091,-8.19247 0.1356,-10.58487 2.51762,-17.3822 7.35911,-17.37609 0.71923,-45.83935 -10.81829,-53.71053 -1.96207,-1.15765 -3.5674,-2.46041 -3.5674,-2.89502 0,-1.27614 -14.09073,-7.59749 -20.03532,-8.9882 -3.00557,-0.70314 -6.13968,-1.83931 -6.96468,-2.52482 -1.86062,-1.54602 -6.8595,-3.16353 -13.82964,-4.47493 -12.68099,-2.78942 -23.88495,-9.61539 -32.13488,-19.5243 -36.676,0.21805 -73.49451,0.0767 -110.03548,3.54194 l -23.91676,0.45806 -4.79162,4.61039 c -7.20539,7.85659 -20.41355,7.22426 -30.79162,8.97482 -12.86671,1.88241 -26.15436,1.29689 -37.2413,8.93932 -1.23272,0.96229 -3.93272,2.06043 -6,2.44031 -7.11148,1.30677 -16.07158,6.62222 -24.32101,14.42809 -7.88771,7.4636 -8.05792,7.72669 -9.02523,13.94947 -0.73744,6.85787 -5.16098,12.08693 -9.14475,17.38665 l -2.42433,-2.61453 c -3.08241,-3.32425 -4.15206,-3.29482 -4.92461,0.13548 -2.72468,12.09829 -4.64648,16.27771 -9.90109,21.53232 -9.69251,7.51122 -22.82434,10.69625 -30.51604,6.76781 2.69573,-6.31996 7.50293,-11.30278 10.80561,-17.30013 0.95462,-1.992 -3.20297,-0.30705 -9.25309,3.75 -6.41665,4.30283 -10.76327,5.5887 -12.01967,3.55581 8.34211,-25.22199 31.14188,-45.85491 50.96551,-62.34936 6.50836,-5.7027 18.36269,-14.52458 20.21295,-22.32684 -8.91657,-0.16895 -15.22436,7.7432 -23.44837,10.30798 -12.80513,3.34388 -19.61908,9.27733 -24.0396,20.93318 -3.14188,8.28435 -7.28218,11.96485 -12.23573,10.87687 -3.25005,-0.71383 -4.20356,0.5018 -6.53456,8.33093 -4.73536,13.37347 -17.12535,22.70227 -30.87458,24.84618 -5.91662,0.5525 -6.58011,0.43136 -6.58011,-1.2014 1.50639,-5.48151 6.44265,-9.46995 7.55397,-15.25271 -3.8202,1.90149 -6.68151,5.28275 -10.77928,6.77936 -1.60732,0 -1.77312,-0.51868 -1.19871,-3.75 2.38926,-10.9549 8.53822,-20.42344 15.71663,-28.87635 8.07173,-5.48192 12.7848,-19.67495 18.94196,-22.37365 11.14318,-4.21097 17.97559,-15.42494 24.82999,-24.59384 5.39844,-7.84636 8.95419,-9.75843 32.29212,-17.36476 8.55456,-2.78811 12.42567,-5.06689 15.72968,-9.25947 4.31397,-5.47416 5.11481,-7.63173 4.40099,-11.85679 -0.73304,-4.33887 -2.70872,-5.14478 -4.71942,-1.92514 -1.8554,2.97097 -3.01009,2.52218 -8.36192,-3.25 -6.24389,-6.73431 -13.00038,-10.49983 -20.24296,-11.28178 -20.37039,0.39379 -38.748,9.12463 -58.97767,11.13116 -8.81297,0.65978 -9.86317,0.51808 -19.5,-2.63108 -9.14373,-2.98801 -18.57246,-8.17073 -18.65446,-10.25384 -0.0598,-1.51855 9.16999,-4.70757 14.5619,-5.03135 7.83743,-0.47063 8.5257,-1.69525 3.87185,-6.88917 -5.52807,-6.16959 -9.7389,-9.75998 -11.46467,-9.7754 -6.7699,2.83834 -12.03517,7.19632 -19.65718,7.29443 -8.10304,-0.10521 -14.11428,-3.13854 -20.73241,-10.4618 -5.59235,-6.18817 -10.61916,-15.17946 -10.59509,-18.95108 0.0291,-4.55619 1.16934,-5.13454 9.61075,-4.87454 10.50337,0.3235 9.84619,0.49821 14.64627,-3.89376 5.81615,-5.32164 18.20033,-13.08236 22.04922,-13.81746 31.52639,-12.9652 56.75579,-50.46534 78.66199,-74.929 -0.0332,-3.80767 -4.48174,-9.85569 -9.10981,-12.38533 -11.68644,-6.38765 -13.75012,-9.86966 -7.89819,-13.32648 3.25654,-1.92369 21.59542,-2.46061 22.19898,-0.64994 0.18765,0.56296 1.92953,1.28133 3.87084,1.59636 3.39745,0.55133 3.6898,0.34449 7.80489,-5.52197 3.74747,-5.34239 6.67246,-8.09797 8.59582,-8.09797 0.4324,2.65351 -0.52404,5.44416 0.20259,8 0.49735,0 4.04236,-2.51114 7.8778,-5.5803 11.02921,-8.82572 13.1014,-9.28348 11.85095,-2.61798 l -0.68395,3.64575 c 8.76588,-5.4601 19.2704,-11.30307 29.30973,-11.94549 0.89272,4.24074 -4.56679,8.7968 -2.18554,12.49802 13.61007,-3.75994 27.45105,-10.51046 41.85345,-9.66222 -11.57975,13.68361 10.29533,4.75107 23.53905,4.87417 10.96596,0.34002 11.79702,1.46141 4.59433,6.19934 -14.68527,7.72187 0.60394,6.24828 8.94551,5.38905 26.24942,-0.004 36.61163,1.29575 38.96577,4.88862 2.73795,3.43914 -3.74978,6.64047 2.53423,7.31026 11.98035,0.66049 29.26107,4.75059 31.28215,7.57279 4.50676,0.84547 4.37721,1.92342 -0.53215,4.42799 -2.2,1.12236 -4,2.39583 -4,2.82994 0,0.43412 2.8125,1.33408 6.25,1.99992 10.48437,1.66161 20.96871,4.70174 29.75,10.87921 -2.16176,2.18749 -5.50272,2.90233 -7.71799,4.90628 49.16466,9.62606 91.99087,34.50627 134.71799,59.15622 10.78509,6.45195 20.45203,14.51983 23.15773,19.32708 5.7464,10.2097 16.25507,13.29395 28.47797,8.35814 9.42471,-3.80585 20.02949,-4.44131 26.59816,-1.59381 8.25885,4.29281 14.71599,11.59394 19.26614,19.63702 l 0.10133,22 c 0.10911,23.68851 0.4804,25.9296 5.75991,34.76599 4.32861,7.24487 2.0415,12.12293 -4.12481,8.7976 -0.95504,-0.51503 -5.0361,-2.17571 -9.06904,-3.6904 -10.52595,-3.56011 -16.85817,-12.70825 -18.17234,-23.61548 0.003,-1.79069 -1.03655,-3.67027 -2.99645,-5.41654 -7.11156,-7.558 -5.82978,-14.41952 -3.69543,-22.27381 2.11175,-5.82229 2.86413,-11.57168 0.2614,-15.771 -8.80603,2.11627 -16.9302,4.73257 -31.38877,2.70364 -5.77868,37.20445 -13.9303,77.60278 33.38016,84.58204 6.7406,0.47629 11.82619,2.53498 13.79527,5.58443 0.82873,1.28344 2.84992,5.70853 4.49153,9.83353 7.4352,18.68305 21.16049,47.62894 25.13103,53 3.05128,4.12754 4.47434,6.93813 6.51922,12.87573 2.47191,7.17748 2.09438,8.79279 -2.24301,9.59694 -4.35618,0.80764 -9.79912,3.90998 -10.62196,6.05425 1.2496,10.3353 6.25009,13.08394 3.93323,23.47453 -1.67765,8.38868 -8.97096,20.99855 -12.14516,20.99855 -0.74059,0 -2.92092,1.38235 -4.84519,3.07188 -3.26274,2.86472 -3.68657,2.98035 -6.2848,1.71472 -2.73709,-1.33328 -2.78054,-1.49292 -2.46905,-9.07188 0.25515,-6.2084 0.0348,-7.71472 -1.12868,-7.71472 -1.49684,0 -2.37976,1.82754 -5.19351,10.75 -1.6287,5.16467 -3.24699,6.34811 -6.13257,4.48469 -3.54851,-6.42549 -5.32733,-13.80872 -7.79025,-20.73469 -7.14013,-16.30955 1.37252,-29.1712 11.39166,-42.1889 -3.30217,-13.94483 -7.55079,-28.07045 -16.61688,-39.42054 -3.85486,-3.5334 -8.99094,-5.89056 -12.83507,-5.89056 -10.51347,-1.70724 -20.13149,-6.84498 -30.47997,-9.11967 4.10893,7.09375 6.08413,15.20905 9.0779,22.82656 4.99035,10.99735 2.6875,23.65099 6.95855,34.82643 2.95297,6.26733 1.67609,9.72477 -5.66284,15.33347 -4.0891,3.12506 -4.40537,3.69946 -4.40491,8 1.04466,8.01407 4.03711,15.11488 3.838,23.3157 -0.41699,9.22675 -1.6735,11.26554 -11.08709,17.9896 -6.07507,4.33939 -7.11054,4.72179 -14.54068,5.36993 -7.61327,0.66411 -8.03287,0.59373 -8.68365,-1.45668 z M 220.29204,382.6079 c -3.44922,-1.31139 -20.14182,-1.25848 -20.96067,0.0664 -0.72826,1.17836 5.46485,9.87979 7.06567,9.92739 4.74674,-0.32609 21.93258,-4.74503 13.895,-9.99383 z"
           inkscape:connector-curvature="0" />
        <path
           style="fill:#ffffff;fill-opacity:1"
           id="path2476"
           d="m 231.85714,323.55245 c 0.51193,-2.99178 3.03178,-4.99843 4,-7.80185 0,-1.73003 6.00885,-4.33254 8.53778,-3.69782 3.06347,1.1605 5.2544,3.40075 8.49243,4.23591 2.85519,0.57104 3.11498,0.41717 2.80803,-1.66306 -1.99542,-5.70574 -7.28205,-6.33818 -12.64131,-6.23614 -7.56604,-0.41655 -12.0924,5.13975 -17.88278,9.03502 -5.0088,3.24057 -7.13585,6.51313 -5.50809,8.47446 1.64772,1.98538 12.19394,-0.0441 12.19394,-2.34652 z m -31,75.71283 c 0,-0.25819 -1.82891,-2.37296 -4.06424,-4.69949 -8.08943,-8.41947 -12.35305,-16.9852 -13.54451,-27.21126 -0.37027,-3.17796 -1.01889,-5.99175 -1.44137,-6.25285 -0.42247,-0.26111 -1.93403,1.8649 -3.35901,4.72446 -6.65139,12.79448 -1.61914,29.62429 13.53505,36.80651 3.19618,-0.35098 6.25713,-1.57789 8.87408,-3.36737 z"
           inkscape:connector-curvature="0" />
      </g>
    </g>
  </g>
</svg>
