<?xml version="1.0" encoding="UTF-8" standalone="no"?>
<!-- Created with Inkscape (http://www.inkscape.org/) -->

<svg
   xmlns:osb="http://www.openswatchbook.org/uri/2009/osb"
   xmlns:dc="http://purl.org/dc/elements/1.1/"
   xmlns:cc="http://creativecommons.org/ns#"
   xmlns:rdf="http://www.w3.org/1999/02/22-rdf-syntax-ns#"
   xmlns:svg="http://www.w3.org/2000/svg"
   xmlns="http://www.w3.org/2000/svg"
   xmlns:xlink="http://www.w3.org/1999/xlink"
   xmlns:sodipodi="http://sodipodi.sourceforge.net/DTD/sodipodi-0.dtd"
   xmlns:inkscape="http://www.inkscape.org/namespaces/inkscape"
   width="100"
   height="105"
   id="svg2"
   version="1.1"
   inkscape:version="0.47 r22583"
   sodipodi:docname="erb4.svg">
  <defs
     id="defs4">
    <linearGradient
       inkscape:collect="always"
       id="linearGradient5375">
      <stop
         style="stop-color:#dfdbd2;stop-opacity:1;"
         offset="0"
         id="stop5377" />
      <stop
         style="stop-color:#dfdbd2;stop-opacity:0;"
         offset="1"
         id="stop5379" />
    </linearGradient>
    <linearGradient
       id="linearGradient5294">
      <stop
         style="stop-color:#dfdbd2;stop-opacity:0.48235294;"
         offset="0"
         id="stop5337" />
      <stop
         style="stop-color:#dfdbd2;stop-opacity:0.46666667;"
         offset="0.0625"
         id="stop5335" />
      <stop
         style="stop-color:#dfdbd2;stop-opacity:0.43529412;"
         offset="0.125"
         id="stop5333" />
      <stop
         style="stop-color:#dfdbd2;stop-opacity:0.37254902;"
         offset="0.25"
         id="stop5331" />
      <stop
         style="stop-color:#dfdbd2;stop-opacity:0.24705882;"
         offset="0.5"
         id="stop5329" />
      <stop
         style="stop-color:#dfdbd2;stop-opacity:0;"
         offset="1"
         id="stop5298" />
    </linearGradient>
    <linearGradient
       id="linearGradient5286"
       osb:paint="solid">
      <stop
         style="stop-color:#dfdbd2;stop-opacity:1;"
         offset="0"
         id="stop5288" />
    </linearGradient>
    <linearGradient
       id="linearGradient5248">
      <stop
         style="stop-color:#dfdbd2;stop-opacity:1;"
         offset="0"
         id="stop5250" />
      <stop
         style="stop-color:#dfdbd2;stop-opacity:0;"
         offset="1"
         id="stop5252" />
    </linearGradient>
    <inkscape:perspective
       sodipodi:type="inkscape:persp3d"
       inkscape:vp_x="0 : 526.18109 : 1"
       inkscape:vp_y="0 : 1000 : 0"
       inkscape:vp_z="744.09448 : 526.18109 : 1"
       inkscape:persp3d-origin="372.04724 : 350.78739 : 1"
       id="perspective10" />
    <inkscape:perspective
       id="perspective2824"
       inkscape:persp3d-origin="0.5 : 0.33333333 : 1"
       inkscape:vp_z="1 : 0.5 : 1"
       inkscape:vp_y="0 : 1000 : 0"
       inkscape:vp_x="0 : 0.5 : 1"
       sodipodi:type="inkscape:persp3d" />
    <linearGradient
       id="linearGradient7100">
      <stop
         style="stop-color: rgb(199, 25, 7); stop-opacity: 1;"
         offset="0"
         id="stop7102" />
      <stop
         style="stop-color: rgb(227, 141, 94); stop-opacity: 1;"
         offset="1"
         id="stop7104" />
    </linearGradient>
    <linearGradient
       id="linearGradient4572">
      <stop
         style="stop-color: rgb(199, 25, 7); stop-opacity: 1;"
         offset="0"
         id="stop4574" />
      <stop
         style="stop-color: rgb(232, 160, 108); stop-opacity: 1;"
         offset="1"
         id="stop4576" />
    </linearGradient>
    <linearGradient
       id="linearGradient7199">
      <stop
         style="stop-color: rgb(254, 254, 254); stop-opacity: 1;"
         offset="0"
         id="stop7201" />
      <stop
         style="stop-color: rgb(254, 254, 254); stop-opacity: 0;"
         offset="1"
         id="stop7203" />
    </linearGradient>
    <inkscape:perspective
       id="perspective3651"
       inkscape:persp3d-origin="177.91713 : 101.81116 : 1"
       inkscape:vp_z="355.83426 : 152.71674 : 1"
       inkscape:vp_y="0 : 1000 : 0"
       inkscape:vp_x="0 : 152.71674 : 1"
       sodipodi:type="inkscape:persp3d" />
    <linearGradient
       inkscape:collect="always"
       xlink:href="#linearGradient7199"
       id="linearGradient3684"
       gradientUnits="userSpaceOnUse"
       x1="478"
       y1="1272.3622"
       x2="472.11472"
       y2="1121.9014"
       gradientTransform="translate(240.729,-844.302)" />
    <inkscape:perspective
       id="perspective3701"
       inkscape:persp3d-origin="0.5 : 0.33333333 : 1"
       inkscape:vp_z="1 : 0.5 : 1"
       inkscape:vp_y="0 : 1000 : 0"
       inkscape:vp_x="0 : 0.5 : 1"
       sodipodi:type="inkscape:persp3d" />
    <inkscape:perspective
       id="perspective3725"
       inkscape:persp3d-origin="0.5 : 0.33333333 : 1"
       inkscape:vp_z="1 : 0.5 : 1"
       inkscape:vp_y="0 : 1000 : 0"
       inkscape:vp_x="0 : 0.5 : 1"
       sodipodi:type="inkscape:persp3d" />
    <inkscape:perspective
       id="perspective3749"
       inkscape:persp3d-origin="0.5 : 0.33333333 : 1"
       inkscape:vp_z="1 : 0.5 : 1"
       inkscape:vp_y="0 : 1000 : 0"
       inkscape:vp_x="0 : 0.5 : 1"
       sodipodi:type="inkscape:persp3d" />
    <inkscape:perspective
       id="perspective3773"
       inkscape:persp3d-origin="0.5 : 0.33333333 : 1"
       inkscape:vp_z="1 : 0.5 : 1"
       inkscape:vp_y="0 : 1000 : 0"
       inkscape:vp_x="0 : 0.5 : 1"
       sodipodi:type="inkscape:persp3d" />
    <inkscape:perspective
       id="perspective3795"
       inkscape:persp3d-origin="0.5 : 0.33333333 : 1"
       inkscape:vp_z="1 : 0.5 : 1"
       inkscape:vp_y="0 : 1000 : 0"
       inkscape:vp_x="0 : 0.5 : 1"
       sodipodi:type="inkscape:persp3d" />
    <linearGradient
       inkscape:collect="always"
       xlink:href="#linearGradient5248"
       id="linearGradient5256"
       x1="162.81747"
       y1="273.26703"
       x2="457.61368"
       y2="273.26703"
       gradientUnits="userSpaceOnUse" />
    <radialGradient
       inkscape:collect="always"
       xlink:href="#linearGradient5248"
       id="radialGradient5271"
       cx="304.21558"
       cy="277.26703"
       fx="304.21558"
       fy="277.26703"
       r="147.39812"
       gradientTransform="matrix(1,0,0,1.0833842,0,-23.119692)"
       gradientUnits="userSpaceOnUse" />
    <radialGradient
       inkscape:collect="always"
       xlink:href="#linearGradient5375"
       id="radialGradient5395"
       cx="262.69281"
       cy="257.4079"
       fx="262.69281"
       fy="257.4079"
       r="147.39812"
       gradientTransform="matrix(1.2356288,0.00598777,-0.00535559,1.1051715,-60.519427,-30.467625)"
       gradientUnits="userSpaceOnUse" />
    <radialGradient
       inkscape:collect="always"
       xlink:href="#linearGradient5375"
       id="radialGradient2920"
       gradientUnits="userSpaceOnUse"
       gradientTransform="matrix(1.2356288,0.00598777,-0.00535559,1.1051715,-60.519427,-30.467625)"
       cx="262.69281"
       cy="257.4079"
       fx="262.69281"
       fy="257.4079"
       r="147.39812" />
  </defs>
  <sodipodi:namedview
     id="base"
     pagecolor="#ffffff"
     bordercolor="#666666"
     borderopacity="1.0"
     inkscape:pageopacity="0.0"
     inkscape:pageshadow="2"
     inkscape:zoom="4.3403895"
     inkscape:cx="50.952659"
     inkscape:cy="50.837852"
     inkscape:document-units="px"
     inkscape:current-layer="layer1"
     showgrid="false"
     inkscape:window-width="1366"
     inkscape:window-height="706"
     inkscape:window-x="-8"
     inkscape:window-y="-8"
     inkscape:window-maximized="1" />
  <metadata
     id="metadata7">
    <rdf:RDF>
      <cc:Work
         rdf:about="">
        <dc:format>image/svg+xml</dc:format>
        <dc:type
           rdf:resource="http://purl.org/dc/dcmitype/StillImage" />
        <dc:title />
      </cc:Work>
    </rdf:RDF>
  </metadata>
  <g
     inkscape:label="Camada 1"
     inkscape:groupmode="layer"
     id="layer1"
     transform="translate(-152.233,-111.677)">
    <g
       id="g2883"
       transform="matrix(0.32701516,0,0,0.32701516,102.9134,73.131796)">
      <path
         id="path44"
         inkscape:connector-curvature="0"
         sodipodi:nodetypes="ccccczssssccscsssssssscc"
         d="m 175.04469,162.3226 0,-1.38821 -2.9e-4,-2e-5 c 16.08035,-14.98455 24.55928,-31.32074 42.07991,-42.86075 0.38792,-0.2422 1.30145,-0.43382 1.30145,-0.43382 12.69512,4.97871 24.49935,10.08049 38.6961,13.36145 14.19686,3.28096 30.5362,6.24997 45.98427,5.8131 22.699,-0.64192 46.20834,-2.5989 67.67479,-10.41152 l 25.50821,-9.2836 c 0.62036,-0.22576 1.22508,0.53552 1.73524,0.95439 15.3576,12.60822 38.3491,45.63714 38.3491,45.63714 l 0,1.04116 c -6.56159,8.34166 -10.88361,17.73682 -15.09669,27.41698 -3.20305,7.35948 -2.70766,14.08154 -1.1279,21.69066 2.68764,14.33059 7.43013,28.08027 12.66733,41.64606 5.70646,14.78137 15.63075,28.71404 16.74515,44.76952 0.55574,8.00681 0.93287,16.22513 -0.0865,24.20677 -1.1415,8.93863 -4.92848,17.61683 -9.80419,25.16116 -6.68441,10.34292 -16.09874,18.64364 -26.28901,25.42145 -11.14801,7.41487 -23.44015,12.77884 -35.91974,17.52605 -13.36873,5.08547 -26.27365,11.13179 -39.04321,17.52606 -3.91485,1.96032 -9.07694,4.46658 -13.53499,6.85424 -8.31461,4.4532 -16.19378,9.8429 -22.99209,16.39814 l -1.30145,0.0868"
         style="fill:none;stroke:#000000;stroke-width:3;stroke-linecap:round;stroke-linejoin:miter;stroke-miterlimit:4;stroke-opacity:1;stroke-dasharray:none" />
      <path
         inkscape:connector-curvature="0"
         sodipodi:nodetypes="csczssssccscsssssssscccsssscssccc"
         id="path5274"
         d="m 169.04441,164.93435 c 0,0 25.09706,-32.25663 42.0799,-42.86073 0.38792,-0.2422 1.30145,-0.43382 1.30145,-0.43382 12.69512,4.97871 24.49935,10.08049 38.6961,13.36145 14.19686,3.28096 30.5362,6.24997 45.98427,5.8131 22.699,-0.64192 46.20834,-2.5989 67.67479,-10.41152 l 25.50821,-9.2836 c 0.62036,-0.22576 1.22508,0.53552 1.73524,0.95439 15.3576,12.60822 38.3491,45.63714 38.3491,45.63714 l 0,1.04116 c -6.56159,8.34166 -10.88361,17.73682 -15.09669,27.41698 -3.20305,7.35948 -2.70766,14.08154 -1.1279,21.69066 2.68764,14.33059 7.43013,28.08027 12.66733,41.64606 5.70646,14.78137 15.63075,28.71404 16.74515,44.76952 0.55574,8.00681 0.93287,16.22513 -0.0865,24.20677 -1.1415,8.93863 -4.92848,17.61683 -9.80419,25.16116 -6.68441,10.34292 -16.09874,18.64364 -26.28901,25.42145 -11.14801,7.41487 -23.44015,12.77884 -35.91974,17.52605 -13.36873,5.08547 -26.27365,11.13179 -39.04321,17.52606 -3.91485,1.96032 -9.07694,4.46658 -13.53499,6.85424 -8.31461,4.4532 -16.19378,9.8429 -22.99209,16.39814 l -1.30145,0.0868 c -7.33791,-6.55346 -15.37995,-12.12035 -23.51264,-17.61282 -14.36351,-9.90151 -30.80654,-15.58482 -47.3724,-20.47598 -21.92929,-6.47474 -40.53162,-18.68372 -55.44134,-35.83296 -8.65608,-9.95628 -13.77269,-23.2203 -15.53047,-36.35354 -0.73172,-5.46713 -0.42329,-16.08259 0.34701,-24.03325 1.6403,-16.93169 11.23138,-31.87491 19.17459,-46.59153 9.25769,-17.78144 15.66292,-39.17839 11.62621,-59.34564 -2.00801,-10.0321 -6.5956,-19.68024 -12.66733,-27.93756 l -2.16912,-2.94993 0,-1.38821 -2.9e-4,-2e-5 z"
         style="fill:url(#radialGradient2920);fill-opacity:1;fill-rule:nonzero;stroke:#000000;stroke-width:3;stroke-linecap:round;stroke-linejoin:miter;stroke-miterlimit:4;stroke-opacity:1;stroke-dasharray:none" />
      <path
         id="path5304"
         style="opacity:0.3;fill:none;stroke:#000000;stroke-width:5;stroke-linecap:round;stroke-linejoin:miter;stroke-miterlimit:4;stroke-opacity:1;stroke-dasharray:none"
         d="m 402.02437,118.07362 c 15.3576,12.60822 38.3491,45.63714 38.3491,45.63714 l 0,1.04116 c -6.56159,8.34166 -10.88361,17.73682 -15.09669,27.41698 -3.20305,7.35948 -2.70766,14.08154 -1.1279,21.69066 2.68764,14.33059 7.43013,28.08027 12.66733,41.64606 5.70646,14.78137 15.63075,28.71404 16.74515,44.76952 0.55574,8.00681 0.93287,16.22513 -0.0865,24.20677 -1.1415,8.93863 -4.92848,17.61683 -9.80419,25.16116 -6.68441,10.34292 -16.09874,18.64364 -26.28901,25.42145 -11.14801,7.41487 -23.44015,12.77884 -35.91974,17.52605 -13.36873,5.08547 -26.27365,11.13179 -39.04321,17.52606 -3.91485,1.96032 -9.07694,4.46658 -13.53499,6.85424 -8.31461,4.4532 -16.19378,9.8429 -22.99209,16.39814 l -1.30145,0.0868"
         sodipodi:nodetypes="cccscsssssssscc"
         inkscape:connector-curvature="0" />
      <path
         sodipodi:nodetypes="cccsscccscccccsccscccccsssccscccccscccscccccsssscsccsssscccsccccscsssssssssssssccccccsssccccccccsccccccccccccccccccccccccccccccccccccsssc"
         d="m 273.00019,225.29479 c -11.10065,-2.06981 -20.8601,-0.0386 -29.56643,1.40137 0.95096,11.92801 -7.57195,12.19589 -8.48872,42.77328 -5.94674,-1.21283 -11.80465,-2.53608 -17.71738,-4.28476 -3.62757,-1.07285 -10.84911,-2.82206 -12.39456,-2.75535 -3.60821,0.15577 -11.64231,5.26636 -11.84024,5.42472 -2.3919,-0.16626 -4.75803,-0.49143 -6.42228,1.40402 -0.77121,0.77121 -1.55971,1.77199 -1.57685,2.78133 0.48543,0.54696 0.70249,0.81663 1.20526,1.24381 1.01756,0.86459 0.83033,2.72723 0.72015,3.77444 1.78735,-0.0783 2.22453,1.08733 2.73831,2.12978 0.89788,0.65959 1.83292,0.87837 2.73908,1.03497 1.95728,-1.59976 3.04482,-2.86134 3.7789,-5.2459 1.81985,-1.55583 4.49489,-3.16307 5.73222,-2.72257 1.57861,-1.67157 2.10964,-2.92877 5.54885,-2.78079 3.54174,0.15239 6.26254,0.59406 10.07367,3.28271 -2.07192,0.49885 -2.45808,1.35788 -3.89741,1.63323 3.28302,0.75318 11.66283,1.82787 14.69122,3.0179 3.28754,1.29186 9.30648,5.00876 9.55815,5.05909 0.3083,2.46058 -0.0984,5.18202 0.79832,7.72991 0.0944,-2.42653 1.12765,-4.50361 2.54412,-5.86708 1.46011,3.87763 2.26521,9.30299 4.20559,12.09758 -0.79663,-6.67236 -0.8596,-14.04267 0.83074,-17.08198 1.94712,4.41384 5.11974,9.01502 8.98232,14.27826 3.774,5.14254 7.86741,13.89029 8.82656,23.5721 0.32227,3.25298 -3.04227,16.33359 -14.1225,16.40702 -5.52046,0.0366 -7.33519,-3.22605 -11.63028,-2.90757 -0.14106,0.41789 -0.9306,1.5524 -1.47845,2.31939 -0.21456,0.2861 -0.34997,0.53364 -0.41852,0.87635 -0.12317,0.61585 -1.27637,2.14506 -1.3547,2.77179 -0.25964,1.22366 -0.17662,2.3778 -0.042,3.61255 3.72678,1.0984 7.86834,0.9866 9.72299,-0.12732 1.36305,-0.14977 2.54971,0.4268 2.64489,0.47872 4.22616,-0.60118 7.42769,-0.37435 13.25334,-0.299 1.23395,-3.75266 6.79612,-10.27563 10.57352,-15.8603 0.0284,-0.0419 0.4228,1.83116 0.5507,3.01052 0.71787,-0.916 1.24982,-2.76887 1.37731,-4.3511 0.96006,1.13236 1.76448,2.42979 2.4042,3.74479 0.4527,-5.92971 -3.48288,-6.61628 -5.03811,-16.28925 -0.19035,-1.18391 -0.79598,-12.51913 -0.83042,-17.6136 1.4033,0.64689 2.6738,1.82732 3.27553,3.07472 0.27096,-0.93779 0.0523,-3.16772 0.005,-4.02179 2.05667,1.54672 6.3749,7.06364 7.22911,8.87205 -1.34749,-9.04712 -9.02806,-13.338 -11.39689,-20.84985 10.85087,4.28404 51.26222,-22.1937 71.67878,-25.47755 5.50344,-0.88519 6.29888,8.12114 4.38497,10.70849 -5.90332,7.98049 -18.52903,13.10657 -19.10692,27.82963 -0.39817,10.14433 16.59214,10.9425 16.61471,18.89922 0.0153,5.40376 -11.25773,18.60358 -19.31459,21.59911 -1.35191,0.54076 -3.64448,0.41536 -5.19209,0.41536 -2.06417,0 -8.43941,-2.84998 -10.0467,-2.64796 -1.09298,0.54353 -1.62221,0.93435 -2.62201,1.32398 -1.42688,0.95125 -2.1247,3.59632 -2.64797,5.16613 -0.34923,1.04767 0.60841,3.08442 1.71339,3.45275 2.02989,0.67663 3.45417,0.37264 5.34785,-0.33748 1.26312,-0.47368 2.70822,0.10239 3.99792,-0.23365 2.50816,-0.65351 7.81577,-0.22757 12.1495,0.75285 1.88814,-4.0576 5.96619,-7.18197 8.04774,-8.17755 0.72455,0.3534 0.93457,1.52838 0.93457,1.99897 2.99748,-1.44019 2.86803,-4.24862 3.45696,-5.21482 1.2503,-2.05124 3.29481,-5.05603 5.9667,-7.11641 0.85134,0.2703 1.8432,0.95212 2.20665,1.99895 1.16218,-1.98474 1.66003,-4.98722 1.50569,-7.37278 2.00953,-3.44412 5.53542,-6.57383 9.76115,-8.41118 -3.54115,-4.98393 -10.55251,-2.30044 -10.69572,-11.42261 -0.14731,-9.38312 13.88293,-19.215 10.95532,-34.68318 4.75483,17.4601 -5.1366,16.11281 -4.51712,30.0103 0.28219,6.33058 7.90014,15.36859 14.64171,15.36859 9.43362,0 13.19555,-6.64588 19.41842,-6.64588 4.40181,0 12.93931,7.32487 12.8764,10.17651 -0.0951,4.31066 -2.9668,11.01373 -4.62097,13.3956 -4.29952,6.19096 -7.71869,6.90097 -13.6552,6.64588 -2.41153,-0.10362 -2.83809,-0.65741 -4.15368,-1.97299 -1.54679,-1.54681 -2.66447,2.55823 -2.90757,3.53062 -0.0692,0.27691 -0.13846,0.55383 -0.20768,0.83073 -0.39494,1.57973 -0.20769,3.81532 -0.20769,5.39978 0,1.77832 3.05412,0.96515 4.15368,0.41537 2.92143,-1.46071 3.32356,-2.28452 7.06125,-2.28452 2.92498,0 5.20431,1.40492 7.89198,2.07684 0.27691,0.0692 0.55382,0.13845 0.83073,0.20768 5.71466,-1.27608 3.74403,-10.19633 8.57587,-15.6256 0.54486,0.74011 1.14821,1.7151 1.64059,2.80679 1.87362,-2.22943 1.08084,-5.7455 1.18096,-8.07014 1.11461,-1.85769 2.07783,-4.12485 3.97119,-5.07152 0.93358,0.4694 1.39782,0.80407 1.95301,1.74966 0.83339,-1.66679 0.56101,-4.33764 -0.30307,-5.17949 -2.27717,-2.21864 -7.51084,-7.41548 -8.91888,-8.82351 -2.29601,-2.29602 -3.56424,-5.25933 -4.98441,-8.09967 -0.94164,-1.88328 -2.0412,-3.76706 -1.45379,-6.02283 -4.7854,1.57042 -7.62415,4.99946 -12.99589,5.45017 -2.65556,0 -6.98735,-0.53019 -7.26893,-5.49012 -0.20888,-3.62503 0.37932,-6.29737 0.95023,-8.26416 0.87262,0.59594 2.1978,1.393 3.44892,3.11202 -0.16083,-2.44311 -0.79618,-5.35564 -1.78745,-6.85357 -0.0367,-0.95015 -0.0164,-3.20685 0.4762,-3.69944 0.66175,0.43967 1.14585,0.97288 1.44227,1.7547 -0.22806,-2.21303 -1.55073,-6.10631 -3.85711,-9.88496 -2.30638,-3.77865 -6.18388,-7.18566 -9.75933,-9.19712 3.90366,-0.0532 11.0785,4.99608 13.59759,6.72767 0.0906,-0.5187 -0.0433,-1.12974 0.0793,-1.43092 3.07275,1.37313 5.10124,3.32203 7.47614,5.84179 0.0475,0.019 0.18485,-1.53159 0.15576,-1.64798 1.97074,1.16819 4.11716,4.589 5.11471,5.37941 0,-1.00446 -0.45589,-2.26346 -0.33901,-3.10083 0.94749,1.22738 3.96917,5.2626 5.46187,7.54134 0.004,-1.15275 -0.064,-1.82526 0.1097,-2.2443 2.66673,2.74374 3.74247,5.93255 6.1287,8.24015 -0.58842,-1.60082 -0.90827,-2.74112 -0.87604,-3.91469 2.35321,1.74898 4.70791,7.28324 6.34147,9.19483 0.0885,-1.36132 -0.36222,-3.35664 -0.0802,-3.98671 0.95161,1.9032 3.00712,6.74602 4.2537,8.46133 -0.0141,-1.09482 -0.0248,-1.86386 0.17052,-2.48916 0.86972,0.80462 1.83026,2.44909 3.55506,3.75536 -0.53399,-1.42023 -0.89669,-2.26358 -0.81445,-2.86914 0.82347,0.16366 2.97997,2.37465 3.60302,2.80338 -0.41536,-2.16435 -1.99081,-5.08486 -2.87842,-6.51826 1.17317,0.97044 3.04938,2.00786 3.34742,2.48713 -0.12966,-0.97325 -2.17935,-4.04231 -2.66466,-4.68938 0.32591,-0.0111 1.3487,0.20002 1.68836,0.35795 -0.18707,-1.65383 -6.74803,-6.88488 -7.4502,-7.39431 1.00132,0.0963 2.58535,0.21954 3.98343,0.56906 -1.07208,-1.19623 -4.91233,-3.64676 -6.66353,-4.64427 0.89077,-0.21952 1.90595,-0.21219 2.64338,-0.0918 -2.10339,-3.27429 -6.09937,-3.34176 -9.27019,-4.8095 2.1373,-0.50086 3.98344,-0.35612 4.68099,-0.49563 -3.08923,-1.36342 -8.22991,-2.18547 -10.38996,-2.38639 0.40043,-0.33128 1.20996,-0.82946 1.92747,-0.86276 -1.64633,-0.72026 -5.38364,-1.15648 -7.14081,-1.15648 0.27398,-0.49564 0.51449,-0.67016 1.39512,-1.15649 -1.01898,-0.16934 -3.32494,-0.45692 -4.80949,-0.6792 0.4881,-0.31207 0.65471,-0.74852 1.45019,-1.15648 -2.54595,-0.79429 -5.46409,-0.34676 -6.00268,-0.29371 0.13308,-0.242 0.47705,-0.62934 0.95161,-1.03822 -11.97672,-2.18538 -15.65001,-3.88127 -18.5678,-5.65323 -7.67865,-4.66321 -17.77234,-5.47917 -27.30702,-6.4638 -6.34484,-0.65522 -21.74566,-0.72358 -28.14114,-1.86915 -8.4392,-1.51165 -33.33874,-9.66167 -38.52535,-17.86081 z"
         style="fill:#000000;fill-opacity:1;fill-rule:evenodd;stroke:#000000;stroke-width:0.8781175;stroke-linecap:butt;stroke-linejoin:miter;stroke-miterlimit:4;stroke-opacity:1;stroke-dasharray:none;stroke-dashoffset:0"
         id="path11718"
         inkscape:connector-curvature="0" />
      <path
         d="m 326.43066,270.38441 c 7.94937,-12.77456 15.04934,-12.32432 25.25314,-9.21319 -1.16782,2.50716 3.12376,4.45983 6.31126,2.95377 2.05574,-0.97131 0.30663,-4.89213 -1.88407,-5.95284 -12.02297,-5.82138 -26.17061,-3.30051 -29.68033,12.21226 z"
         style="fill:#ffffff;fill-opacity:1;fill-rule:evenodd;stroke:#000000;stroke-width:0.8781175;stroke-linecap:butt;stroke-linejoin:miter;stroke-miterlimit:4;stroke-opacity:1;stroke-dasharray:none"
         id="path13548"
         inkscape:connector-curvature="0" />
      <g
         transform="matrix(0.87811751,0,0,0.87811751,-202.38764,-241.37911)"
         id="g18013"
         style="stroke:#000000;stroke-width:1;stroke-miterlimit:4;stroke-opacity:1;stroke-dasharray:none">
        <g
           id="g13498"
           style="stroke:#000000;stroke-width:1;stroke-miterlimit:4;stroke-opacity:1;stroke-dasharray:none">
          <path
             id="path12605"
             style="fill:#ffffff;fill-opacity:1;fill-rule:evenodd;stroke:#000000;stroke-width:1;stroke-linecap:butt;stroke-linejoin:miter;stroke-miterlimit:4;stroke-opacity:1;stroke-dasharray:none"
             d="m 441.13592,584.73711 c 0.91385,0.74948 1.80176,1.25937 2.09902,2.40946 -1.35963,0.36889 -3.26485,4.0143 -3.38505,6.23796 -1.50313,-2.76085 -0.42792,-6.17828 1.28603,-8.64742 z"
             inkscape:connector-curvature="0" />
          <path
             id="path13492"
             style="fill:#ffffff;fill-opacity:1;fill-rule:evenodd;stroke:#000000;stroke-width:1;stroke-linecap:butt;stroke-linejoin:miter;stroke-miterlimit:4;stroke-opacity:1;stroke-dasharray:none"
             d="m 443.35224,590.35001 c 1.69246,-0.0188 2.30595,0.81751 2.821,1.88793 -1.26205,0.62603 -2.7313,4.69906 -2.41716,6.9037 -2.0109,-2.41619 -1.60539,-6.03653 -0.40384,-8.79163 z"
             inkscape:connector-curvature="0" />
          <path
             id="path13494"
             style="fill:#ffffff;fill-opacity:1;fill-rule:evenodd;stroke:#000000;stroke-width:1;stroke-linecap:butt;stroke-linejoin:miter;stroke-miterlimit:4;stroke-opacity:1;stroke-dasharray:none"
             d="m 446.46498,592.81906 c 1.30709,0.76618 2.09031,0.93149 3.10185,1.20008 -1.03856,0.95188 -1.43733,5.96001 -0.52331,7.9907 -2.60279,-1.76273 -2.96774,-6.21037 -2.57854,-9.19078 z"
             inkscape:connector-curvature="0" />
          <path
             id="path13496"
             style="fill:#ffffff;fill-opacity:1;fill-rule:evenodd;stroke:#000000;stroke-width:1;stroke-linecap:butt;stroke-linejoin:miter;stroke-miterlimit:4;stroke-opacity:1;stroke-dasharray:none"
             d="m 460.43863,584.89989 c -1.09455,-0.20343 -2.01689,0.13987 -3.06834,0.71128 0.32079,1.26594 -1.14027,3.33368 -2.71006,4.49038 2.66587,-0.11143 4.72099,-2.65015 5.7784,-5.20166 z"
             inkscape:connector-curvature="0" />
        </g>
        <g
           id="g17995"
           style="stroke:#000000;stroke-width:1;stroke-miterlimit:4;stroke-opacity:1;stroke-dasharray:none">
          <path
             id="path13506"
             style="fill:#ffffff;fill-opacity:1;fill-rule:evenodd;stroke:#000000;stroke-width:1;stroke-linecap:butt;stroke-linejoin:miter;stroke-miterlimit:4;stroke-opacity:1;stroke-dasharray:none"
             d="m 501.89547,651.45176 c -0.45811,1.08948 -0.69395,2.08585 -1.7117,2.69841 -0.74092,-1.19821 -4.77801,-1.98607 -6.94378,-1.46784 2.21827,-2.22732 5.8004,-2.17015 8.65548,-1.23057 z"
             inkscape:connector-curvature="0" />
          <path
             id="path13508"
             style="fill:#ffffff;fill-opacity:1;fill-rule:evenodd;stroke:#000000;stroke-width:1;stroke-linecap:butt;stroke-linejoin:miter;stroke-miterlimit:4;stroke-opacity:1;stroke-dasharray:none"
             d="m 499.67748,655.1218 c 0.35525,1.65989 -0.44714,2.40984 -1.52747,3.10422 -0.94075,-1.13016 -5.72912,-1.85779 -8.10173,-1.1614 2.27093,-2.40101 6.34918,-2.63913 9.6292,-1.94282 z"
             inkscape:connector-curvature="0" />
          <path
             id="path13510"
             style="fill:#ffffff;fill-opacity:1;fill-rule:evenodd;stroke:#000000;stroke-width:1;stroke-linecap:butt;stroke-linejoin:miter;stroke-miterlimit:4;stroke-opacity:1;stroke-dasharray:none"
             d="m 498.06451,658.8953 c -0.11111,0.93209 -0.0211,2.45331 0.0979,3.49311 -1.26517,-0.61971 -6.13631,0.85699 -7.69358,2.44885 0.69168,-3.06648 4.67873,-5.21701 7.59572,-5.94196 z"
             inkscape:connector-curvature="0" />
          <path
             id="path13512"
             style="fill:#ffffff;fill-opacity:1;fill-rule:evenodd;stroke:#000000;stroke-width:1;stroke-linecap:butt;stroke-linejoin:miter;stroke-miterlimit:4;stroke-opacity:1;stroke-dasharray:none"
             d="m 512.24169,662.79354 c -0.9289,-0.61364 -1.91212,-0.65665 -3.10309,-0.53985 -0.19756,1.29092 -2.34855,2.62639 -4.24488,3.0804 2.49878,0.9356 5.38035,-0.6023 7.34797,-2.54055 z"
             inkscape:connector-curvature="0" />
        </g>
        <g
           id="g18001"
           style="stroke:#000000;stroke-width:1;stroke-miterlimit:4;stroke-opacity:1;stroke-dasharray:none">
          <path
             id="path13516"
             style="fill:#ffffff;fill-opacity:1;fill-rule:evenodd;stroke:#000000;stroke-width:1;stroke-linecap:butt;stroke-linejoin:miter;stroke-miterlimit:4;stroke-opacity:1;stroke-dasharray:none"
             d="m 580.87743,652.25717 c -0.94681,0.70739 -1.65479,1.44707 -2.8426,1.45979 -0.032,-1.40843 -3.11398,-4.13244 -5.24389,-4.78251 3.0408,-0.79701 6.10056,1.06654 8.08649,3.32272 z"
             inkscape:connector-curvature="0" />
          <path
             id="path13518"
             style="fill:#ffffff;fill-opacity:1;fill-rule:evenodd;stroke:#000000;stroke-width:1;stroke-linecap:butt;stroke-linejoin:miter;stroke-miterlimit:4;stroke-opacity:1;stroke-dasharray:none"
             d="m 577.65187,654.02884 c -0.95213,1.07439 -1.3113,2.06176 -1.80597,3.18741 -1.03104,-0.96002 -5.39008,-0.72037 -7.34211,0.3514 1.55134,-2.73405 6.14622,-3.69106 9.14808,-3.53881 z"
             inkscape:connector-curvature="0" />
          <path
             id="path13520"
             style="fill:#ffffff;fill-opacity:1;fill-rule:evenodd;stroke:#000000;stroke-width:1;stroke-linecap:butt;stroke-linejoin:miter;stroke-miterlimit:4;stroke-opacity:1;stroke-dasharray:none"
             d="m 575.33115,658.67209 c -0.34589,1.47509 -0.42029,2.30176 0.0358,3.28836 -1.21619,-0.71103 -6.11863,0.38735 -7.78871,1.86043 0.91523,-3.00734 4.79053,-4.64023 7.75291,-5.14879 z"
             inkscape:connector-curvature="0" />
          <path
             id="path13522"
             style="fill:#ffffff;fill-opacity:1;fill-rule:evenodd;stroke:#000000;stroke-width:1;stroke-linecap:butt;stroke-linejoin:miter;stroke-miterlimit:4;stroke-opacity:1;stroke-dasharray:none"
             d="m 587.45501,662.8827 c -1.30269,-0.0972 -2.69893,-0.36378 -4.2169,0.26496 -0.21943,1.28738 -2.39277,2.4088 -4.29652,2.8306 2.48256,0.97783 6.51322,-1.19095 8.51342,-3.09556 z"
             inkscape:connector-curvature="0" />
        </g>
        <g
           id="g18007"
           style="stroke:#000000;stroke-width:1;stroke-miterlimit:4;stroke-opacity:1;stroke-dasharray:none">
          <path
             id="path13526"
             style="fill:#ffffff;fill-opacity:1;fill-rule:evenodd;stroke:#000000;stroke-width:1;stroke-linecap:butt;stroke-linejoin:miter;stroke-miterlimit:4;stroke-opacity:1;stroke-dasharray:none"
             d="m 659.521,650.55941 c -1.28284,0.92351 -1.45877,2.4268 -1.71955,2.94557 -1.0481,-0.94136 -5.2274,-0.58245 -7.15988,0.52416 1.50202,-2.76144 5.87534,-3.56808 8.87943,-3.46973 z"
             inkscape:connector-curvature="0" />
          <path
             id="path13528"
             style="fill:#ffffff;fill-opacity:1;fill-rule:evenodd;stroke:#000000;stroke-width:1;stroke-linecap:butt;stroke-linejoin:miter;stroke-miterlimit:4;stroke-opacity:1;stroke-dasharray:none"
             d="m 657.37831,655.19767 c -0.0804,0.53197 -0.57073,2.35285 -0.41316,3.49496 -1.07022,-0.97333 -5.40297,-0.99674 -7.2711,0.0879 1.38168,-2.76898 4.71294,-3.73904 7.68426,-3.58281 z"
             inkscape:connector-curvature="0" />
          <path
             id="path13530"
             style="fill:#ffffff;fill-opacity:1;fill-rule:evenodd;stroke:#000000;stroke-width:1;stroke-linecap:butt;stroke-linejoin:miter;stroke-miterlimit:4;stroke-opacity:1;stroke-dasharray:none"
             d="m 657.00465,660.25093 c 0.34492,1.52786 0.69267,2.13179 1.72339,2.93866 -1.38208,-0.27306 -5.52811,2.16268 -6.623,4.10183 -0.1212,-3.14117 2.26765,-5.58892 4.89961,-7.04049 z"
             inkscape:connector-curvature="0" />
          <path
             id="path13532"
             style="fill:#ffffff;fill-opacity:1;fill-rule:evenodd;stroke:#000000;stroke-width:1;stroke-linecap:butt;stroke-linejoin:miter;stroke-miterlimit:4;stroke-opacity:1;stroke-dasharray:none"
             d="m 671.37116,659.87781 c -1.08412,-0.1536 -2.3202,-0.14462 -3.14959,-0.0262 0.0158,1.30585 -1.95117,2.86991 -3.74798,3.62731 2.61796,0.51528 5.27264,-1.36774 6.89757,-3.6011 z"
             inkscape:connector-curvature="0" />
        </g>
      </g>
      <g
         transform="matrix(0.87811751,0,0,0.87811751,-202.38764,-241.37911)"
         style="stroke:#000000;stroke-width:1;stroke-miterlimit:4;stroke-opacity:1;stroke-dasharray:none"
         id="g8124">
        <g
           style="stroke:#000000;stroke-width:0.76755285;stroke-miterlimit:4;stroke-opacity:1;stroke-dasharray:none"
           transform="matrix(1.20878,0,0,1.40422,-93.3461,-185.104)"
           id="g8120">
          <g
             style="stroke:#000000;stroke-width:0.76755285;stroke-miterlimit:4;stroke-opacity:1;stroke-dasharray:none"
             id="g17987">
            <path
               d="m 494.72573,510.35371 c 0.47806,-1.78414 -6.89517,-4.28921 -10.92295,-4.28921 -14.74705,0 -14.8334,7.13025 -23.10206,7.10827 -1.55233,-0.004 -3.39548,-2.11171 -3.96083,-2.16714 -1.30918,-0.12837 -2.5751,0.45107 -2.5751,1.83274 0,2.06782 3.05723,5.10682 7.52488,5.10682 8.63936,0 8.64165,-10.78515 22.1462,-10.78515 5.42697,0 8.35916,2.51557 10.88986,3.19367 z"
               transform="matrix(0.82728,0,0,0.712138,77.2234,131.82)"
               style="fill:#ffffff;fill-opacity:1;fill-rule:evenodd;stroke:#000000;stroke-width:0.99999988;stroke-linecap:butt;stroke-linejoin:miter;stroke-miterlimit:4;stroke-opacity:1;stroke-dasharray:none"
               id="path1888"
               inkscape:connector-curvature="0" />
            <g
               style="stroke:#000000;stroke-width:0.76755285;stroke-miterlimit:4;stroke-opacity:1;stroke-dasharray:none"
               id="g17980">
              <path
                 d="m 497.27966,556.5023 c 1.26902,-1.48243 7.61498,-12.61573 7.86704,-14.82675 -2.85704,2.83725 -6.487,3.46498 -9.7491,2.90316 5.42893,-2.7634 6.58976,-6.55398 10.1837,-10.84439 -2.04099,0.6747 -5.27519,1.06605 -6.95145,0.94076 3.46874,-2.57951 6.106,-6.29269 8.40361,-9.94622 1.79777,-3.67093 1.45202,-7.87463 2.59096,-11.72878 -6.28275,7.4878 -7.14859,2.30362 -22.31636,2.30362 -2.97707,0 -9.39961,1.93002 -9.11047,-2.8734 0.91889,-2.60063 3.23435,-4.50075 4.59614,-2.46667 3.80153,-0.27872 7.52727,0.37372 11.31767,0.56185 4.2979,0.41114 5.931,-1.98236 3.86838,-5.25318 -2.2181,-3.51736 -7.51816,-4.66644 -11.51788,-6.2263 -3.7061,-1.44535 -8.73165,0.33565 -11.81068,3.16893 -4.23311,1.30252 -7.95521,-4.7142 -8.54097,-8.21844 7.15356,-3.02337 11.08915,-5.58726 18.33775,-6.82676 1.48973,-5.3686 17.68868,-5.14394 23.2276,-5.37328 2.58349,-2.28509 8.82094,-6.22377 14.31742,-10.35407 -1.45325,6.81751 -2.63255,11.90299 -2.26377,16.2916 9.6374,4.25701 16.28147,13.91397 22.34116,22.2428 -1.06208,-0.60517 -2.9949,-1.33948 -4.03538,-1.53559 2.48429,3.31275 4.61402,7.18925 8.0838,11.10552 -2.86384,-0.71071 -4.14235,-1.67099 -6.99383,-3.93453 0.96859,2.49769 3.73735,7.30092 6.09639,10.34718 -1.93782,-0.70821 -3.08142,-1.16446 -5.12658,-2.94015 0.4453,4.46805 4.79809,10.83906 9.33398,12.65659 -4.46218,1.7647 -12.25699,0.57003 -14.65627,-0.59742 0.72615,3.66397 2.98087,9.23943 5.29253,12.55839 -4.59098,-1.48242 -8.42157,-4.47461 -10.70934,-7.44341 1.57764,4.90744 -0.87265,13.40451 -3.99497,16.0801 -0.0653,-3.47702 -1.04762,-5.62495 -2.11074,-9.16128 -1.23591,4.83102 -4.97511,9.01777 -9.75,10.5 1.46337,-2.41991 1.0055,-3.77458 0.18622,-9.98866 -0.55937,5.27928 -9.19705,6.91798 -16.40656,8.87878 z"
                 transform="matrix(0.82728,0,0,0.712138,77.2234,131.82)"
                 style="fill:#000000;fill-opacity:1;fill-rule:evenodd;stroke:#000000;stroke-width:0.99999988;stroke-linecap:butt;stroke-linejoin:miter;stroke-miterlimit:4;stroke-opacity:1;stroke-dasharray:none"
                 id="path4571"
                 inkscape:connector-curvature="0" />
              <g
                 style="stroke:#000000;stroke-width:0.76755285;stroke-miterlimit:4;stroke-opacity:1;stroke-dasharray:none"
                 id="g17975">
                <path
                   d="m 472.5625,481.36218 c 0,0.5868 -1.23122,1.0625 -2.75,1.0625 -1.51878,0 -2.75,-0.4757 -2.75,-1.0625 0,-0.5868 1.23122,-1.0625 2.75,-1.0625 1.51878,0 2.75,0.4757 2.75,1.0625 z"
                   transform="matrix(0.949126,-0.314897,0.314897,0.949126,-115.366,172.806)"
                   style="color:#000000;fill:#ffffff;fill-opacity:1;fill-rule:nonzero;stroke:#000000;stroke-width:0.76755273;stroke-linecap:butt;stroke-linejoin:miter;stroke-miterlimit:4;stroke-opacity:1;stroke-dasharray:none;stroke-dashoffset:0;marker:none;visibility:visible;display:inline;overflow:visible"
                   id="path7231"
                   inkscape:connector-curvature="0" />
                <path
                   d="m 472.5625,481.36218 c 0,0.5868 -1.23122,1.0625 -2.75,1.0625 -1.51878,0 -2.75,-0.4757 -2.75,-1.0625 0,-0.5868 1.23122,-1.0625 2.75,-1.0625 1.51878,0 2.75,0.4757 2.75,1.0625 z"
                   transform="matrix(0.529122,-0.213395,0.175551,0.643188,148.158,272.766)"
                   style="color:#000000;fill:#000000;fill-opacity:1;fill-rule:nonzero;stroke:#000000;stroke-width:1.24877739;stroke-linecap:butt;stroke-linejoin:miter;stroke-miterlimit:4;stroke-opacity:1;stroke-dasharray:none;stroke-dashoffset:0;marker:none;visibility:visible;display:inline;overflow:visible"
                   id="path7233"
                   inkscape:connector-curvature="0" />
              </g>
            </g>
          </g>
        </g>
      </g>
    </g>
  </g>
</svg>
