<?xml version="1.0" encoding="UTF-8" standalone="no"?>
<!-- Created with Inkscape (http://www.inkscape.org/) -->

<svg
   xmlns:osb="http://www.openswatchbook.org/uri/2009/osb"
   xmlns:dc="http://purl.org/dc/elements/1.1/"
   xmlns:cc="http://creativecommons.org/ns#"
   xmlns:rdf="http://www.w3.org/1999/02/22-rdf-syntax-ns#"
   xmlns:svg="http://www.w3.org/2000/svg"
   xmlns="http://www.w3.org/2000/svg"
   xmlns:xlink="http://www.w3.org/1999/xlink"
   xmlns:sodipodi="http://sodipodi.sourceforge.net/DTD/sodipodi-0.dtd"
   xmlns:inkscape="http://www.inkscape.org/namespaces/inkscape"
   width="100"
   height="105"
   id="svg2"
   version="1.1"
   inkscape:version="0.47 r22583"
   sodipodi:docname="erb5.svg">
  <defs
     id="defs4">
    <linearGradient
       inkscape:collect="always"
       id="linearGradient5375">
      <stop
         style="stop-color:#dfdbd2;stop-opacity:1;"
         offset="0"
         id="stop5377" />
      <stop
         style="stop-color:#dfdbd2;stop-opacity:0;"
         offset="1"
         id="stop5379" />
    </linearGradient>
    <linearGradient
       id="linearGradient5294">
      <stop
         style="stop-color:#dfdbd2;stop-opacity:0.48235294;"
         offset="0"
         id="stop5337" />
      <stop
         style="stop-color:#dfdbd2;stop-opacity:0.46666667;"
         offset="0.0625"
         id="stop5335" />
      <stop
         style="stop-color:#dfdbd2;stop-opacity:0.43529412;"
         offset="0.125"
         id="stop5333" />
      <stop
         style="stop-color:#dfdbd2;stop-opacity:0.37254902;"
         offset="0.25"
         id="stop5331" />
      <stop
         style="stop-color:#dfdbd2;stop-opacity:0.24705882;"
         offset="0.5"
         id="stop5329" />
      <stop
         style="stop-color:#dfdbd2;stop-opacity:0;"
         offset="1"
         id="stop5298" />
    </linearGradient>
    <linearGradient
       id="linearGradient5286"
       osb:paint="solid">
      <stop
         style="stop-color:#dfdbd2;stop-opacity:1;"
         offset="0"
         id="stop5288" />
    </linearGradient>
    <linearGradient
       id="linearGradient5248">
      <stop
         style="stop-color:#dfdbd2;stop-opacity:1;"
         offset="0"
         id="stop5250" />
      <stop
         style="stop-color:#dfdbd2;stop-opacity:0;"
         offset="1"
         id="stop5252" />
    </linearGradient>
    <inkscape:perspective
       sodipodi:type="inkscape:persp3d"
       inkscape:vp_x="0 : 526.18109 : 1"
       inkscape:vp_y="0 : 1000 : 0"
       inkscape:vp_z="744.09448 : 526.18109 : 1"
       inkscape:persp3d-origin="372.04724 : 350.78739 : 1"
       id="perspective10" />
    <inkscape:perspective
       id="perspective2824"
       inkscape:persp3d-origin="0.5 : 0.33333333 : 1"
       inkscape:vp_z="1 : 0.5 : 1"
       inkscape:vp_y="0 : 1000 : 0"
       inkscape:vp_x="0 : 0.5 : 1"
       sodipodi:type="inkscape:persp3d" />
    <linearGradient
       id="linearGradient7100">
      <stop
         style="stop-color: rgb(199, 25, 7); stop-opacity: 1;"
         offset="0"
         id="stop7102" />
      <stop
         style="stop-color: rgb(227, 141, 94); stop-opacity: 1;"
         offset="1"
         id="stop7104" />
    </linearGradient>
    <linearGradient
       id="linearGradient4572">
      <stop
         style="stop-color: rgb(199, 25, 7); stop-opacity: 1;"
         offset="0"
         id="stop4574" />
      <stop
         style="stop-color: rgb(232, 160, 108); stop-opacity: 1;"
         offset="1"
         id="stop4576" />
    </linearGradient>
    <linearGradient
       id="linearGradient7199">
      <stop
         style="stop-color: rgb(254, 254, 254); stop-opacity: 1;"
         offset="0"
         id="stop7201" />
      <stop
         style="stop-color: rgb(254, 254, 254); stop-opacity: 0;"
         offset="1"
         id="stop7203" />
    </linearGradient>
    <inkscape:perspective
       id="perspective3651"
       inkscape:persp3d-origin="177.91713 : 101.81116 : 1"
       inkscape:vp_z="355.83426 : 152.71674 : 1"
       inkscape:vp_y="0 : 1000 : 0"
       inkscape:vp_x="0 : 152.71674 : 1"
       sodipodi:type="inkscape:persp3d" />
    <linearGradient
       inkscape:collect="always"
       xlink:href="#linearGradient7199"
       id="linearGradient3684"
       gradientUnits="userSpaceOnUse"
       x1="478"
       y1="1272.3622"
       x2="472.11472"
       y2="1121.9014"
       gradientTransform="translate(240.729,-844.302)" />
    <inkscape:perspective
       id="perspective3701"
       inkscape:persp3d-origin="0.5 : 0.33333333 : 1"
       inkscape:vp_z="1 : 0.5 : 1"
       inkscape:vp_y="0 : 1000 : 0"
       inkscape:vp_x="0 : 0.5 : 1"
       sodipodi:type="inkscape:persp3d" />
    <inkscape:perspective
       id="perspective3725"
       inkscape:persp3d-origin="0.5 : 0.33333333 : 1"
       inkscape:vp_z="1 : 0.5 : 1"
       inkscape:vp_y="0 : 1000 : 0"
       inkscape:vp_x="0 : 0.5 : 1"
       sodipodi:type="inkscape:persp3d" />
    <inkscape:perspective
       id="perspective3749"
       inkscape:persp3d-origin="0.5 : 0.33333333 : 1"
       inkscape:vp_z="1 : 0.5 : 1"
       inkscape:vp_y="0 : 1000 : 0"
       inkscape:vp_x="0 : 0.5 : 1"
       sodipodi:type="inkscape:persp3d" />
    <inkscape:perspective
       id="perspective3773"
       inkscape:persp3d-origin="0.5 : 0.33333333 : 1"
       inkscape:vp_z="1 : 0.5 : 1"
       inkscape:vp_y="0 : 1000 : 0"
       inkscape:vp_x="0 : 0.5 : 1"
       sodipodi:type="inkscape:persp3d" />
    <inkscape:perspective
       id="perspective3795"
       inkscape:persp3d-origin="0.5 : 0.33333333 : 1"
       inkscape:vp_z="1 : 0.5 : 1"
       inkscape:vp_y="0 : 1000 : 0"
       inkscape:vp_x="0 : 0.5 : 1"
       sodipodi:type="inkscape:persp3d" />
    <linearGradient
       inkscape:collect="always"
       xlink:href="#linearGradient5248"
       id="linearGradient5256"
       x1="162.81747"
       y1="273.26703"
       x2="457.61368"
       y2="273.26703"
       gradientUnits="userSpaceOnUse" />
    <radialGradient
       inkscape:collect="always"
       xlink:href="#linearGradient5248"
       id="radialGradient5271"
       cx="304.21558"
       cy="277.26703"
       fx="304.21558"
       fy="277.26703"
       r="147.39812"
       gradientTransform="matrix(1,0,0,1.0833842,0,-23.119692)"
       gradientUnits="userSpaceOnUse" />
    <radialGradient
       inkscape:collect="always"
       xlink:href="#linearGradient5375"
       id="radialGradient5395"
       cx="262.69281"
       cy="257.4079"
       fx="262.69281"
       fy="257.4079"
       r="147.39812"
       gradientTransform="matrix(1.2356288,0.00598777,-0.00535559,1.1051715,-60.519427,-30.467625)"
       gradientUnits="userSpaceOnUse" />
    <radialGradient
       inkscape:collect="always"
       xlink:href="#linearGradient5375"
       id="radialGradient2857"
       gradientUnits="userSpaceOnUse"
       gradientTransform="matrix(1.2356288,0.00598777,-0.00535559,1.1051715,-60.519427,-30.467625)"
       cx="262.69281"
       cy="257.4079"
       fx="262.69281"
       fy="257.4079"
       r="147.39812" />
  </defs>
  <sodipodi:namedview
     id="base"
     pagecolor="#ffffff"
     bordercolor="#666666"
     borderopacity="1.0"
     inkscape:pageopacity="0.0"
     inkscape:pageshadow="2"
     inkscape:zoom="4.3403895"
     inkscape:cx="50.163259"
     inkscape:cy="51.627247"
     inkscape:document-units="px"
     inkscape:current-layer="layer1"
     showgrid="false"
     inkscape:window-width="1366"
     inkscape:window-height="706"
     inkscape:window-x="-8"
     inkscape:window-y="-8"
     inkscape:window-maximized="1" />
  <metadata
     id="metadata7">
    <rdf:RDF>
      <cc:Work
         rdf:about="">
        <dc:format>image/svg+xml</dc:format>
        <dc:type
           rdf:resource="http://purl.org/dc/dcmitype/StillImage" />
        <dc:title />
      </cc:Work>
    </rdf:RDF>
  </metadata>
  <g
     inkscape:label="Camada 1"
     inkscape:groupmode="layer"
     id="layer1"
     transform="translate(-152.233,-111.677)">
    <g
       id="g2851"
       transform="matrix(0.32701516,0,0,0.32701516,102.9134,73.131796)">
      <path
         id="path44"
         inkscape:connector-curvature="0"
         sodipodi:nodetypes="ccccczssssccscsssssssscc"
         d="m 175.04469,162.3226 0,-1.38821 -2.9e-4,-2e-5 c 16.08035,-14.98455 24.55928,-31.32074 42.07991,-42.86075 0.38792,-0.2422 1.30145,-0.43382 1.30145,-0.43382 12.69512,4.97871 24.49935,10.08049 38.6961,13.36145 14.19686,3.28096 30.5362,6.24997 45.98427,5.8131 22.699,-0.64192 46.20834,-2.5989 67.67479,-10.41152 l 25.50821,-9.2836 c 0.62036,-0.22576 1.22508,0.53552 1.73524,0.95439 15.3576,12.60822 38.3491,45.63714 38.3491,45.63714 l 0,1.04116 c -6.56159,8.34166 -10.88361,17.73682 -15.09669,27.41698 -3.20305,7.35948 -2.70766,14.08154 -1.1279,21.69066 2.68764,14.33059 7.43013,28.08027 12.66733,41.64606 5.70646,14.78137 15.63075,28.71404 16.74515,44.76952 0.55574,8.00681 0.93287,16.22513 -0.0865,24.20677 -1.1415,8.93863 -4.92848,17.61683 -9.80419,25.16116 -6.68441,10.34292 -16.09874,18.64364 -26.28901,25.42145 -11.14801,7.41487 -23.44015,12.77884 -35.91974,17.52605 -13.36873,5.08547 -26.27365,11.13179 -39.04321,17.52606 -3.91485,1.96032 -9.07694,4.46658 -13.53499,6.85424 -8.31461,4.4532 -16.19378,9.8429 -22.99209,16.39814 l -1.30145,0.0868"
         style="fill:none;stroke:#000000;stroke-width:3;stroke-linecap:round;stroke-linejoin:miter;stroke-miterlimit:4;stroke-opacity:1;stroke-dasharray:none" />
      <path
         inkscape:connector-curvature="0"
         sodipodi:nodetypes="csczssssccscsssssssscccsssscssccc"
         id="path5274"
         d="m 169.04441,164.93435 c 0,0 25.09706,-32.25663 42.0799,-42.86073 0.38792,-0.2422 1.30145,-0.43382 1.30145,-0.43382 12.69512,4.97871 24.49935,10.08049 38.6961,13.36145 14.19686,3.28096 30.5362,6.24997 45.98427,5.8131 22.699,-0.64192 46.20834,-2.5989 67.67479,-10.41152 l 25.50821,-9.2836 c 0.62036,-0.22576 1.22508,0.53552 1.73524,0.95439 15.3576,12.60822 38.3491,45.63714 38.3491,45.63714 l 0,1.04116 c -6.56159,8.34166 -10.88361,17.73682 -15.09669,27.41698 -3.20305,7.35948 -2.70766,14.08154 -1.1279,21.69066 2.68764,14.33059 7.43013,28.08027 12.66733,41.64606 5.70646,14.78137 15.63075,28.71404 16.74515,44.76952 0.55574,8.00681 0.93287,16.22513 -0.0865,24.20677 -1.1415,8.93863 -4.92848,17.61683 -9.80419,25.16116 -6.68441,10.34292 -16.09874,18.64364 -26.28901,25.42145 -11.14801,7.41487 -23.44015,12.77884 -35.91974,17.52605 -13.36873,5.08547 -26.27365,11.13179 -39.04321,17.52606 -3.91485,1.96032 -9.07694,4.46658 -13.53499,6.85424 -8.31461,4.4532 -16.19378,9.8429 -22.99209,16.39814 l -1.30145,0.0868 c -7.33791,-6.55346 -15.37995,-12.12035 -23.51264,-17.61282 -14.36351,-9.90151 -30.80654,-15.58482 -47.3724,-20.47598 -21.92929,-6.47474 -40.53162,-18.68372 -55.44134,-35.83296 -8.65608,-9.95628 -13.77269,-23.2203 -15.53047,-36.35354 -0.73172,-5.46713 -0.42329,-16.08259 0.34701,-24.03325 1.6403,-16.93169 11.23138,-31.87491 19.17459,-46.59153 9.25769,-17.78144 15.66292,-39.17839 11.62621,-59.34564 -2.00801,-10.0321 -6.5956,-19.68024 -12.66733,-27.93756 l -2.16912,-2.94993 0,-1.38821 -2.9e-4,-2e-5 z"
         style="fill:url(#radialGradient2857);fill-opacity:1;fill-rule:nonzero;stroke:#000000;stroke-width:3;stroke-linecap:round;stroke-linejoin:miter;stroke-miterlimit:4;stroke-opacity:1;stroke-dasharray:none" />
      <path
         id="path5304"
         style="opacity:0.3;fill:none;stroke:#000000;stroke-width:5;stroke-linecap:round;stroke-linejoin:miter;stroke-miterlimit:4;stroke-opacity:1;stroke-dasharray:none"
         d="m 402.02437,118.07362 c 15.3576,12.60822 38.3491,45.63714 38.3491,45.63714 l 0,1.04116 c -6.56159,8.34166 -10.88361,17.73682 -15.09669,27.41698 -3.20305,7.35948 -2.70766,14.08154 -1.1279,21.69066 2.68764,14.33059 7.43013,28.08027 12.66733,41.64606 5.70646,14.78137 15.63075,28.71404 16.74515,44.76952 0.55574,8.00681 0.93287,16.22513 -0.0865,24.20677 -1.1415,8.93863 -4.92848,17.61683 -9.80419,25.16116 -6.68441,10.34292 -16.09874,18.64364 -26.28901,25.42145 -11.14801,7.41487 -23.44015,12.77884 -35.91974,17.52605 -13.36873,5.08547 -26.27365,11.13179 -39.04321,17.52606 -3.91485,1.96032 -9.07694,4.46658 -13.53499,6.85424 -8.31461,4.4532 -16.19378,9.8429 -22.99209,16.39814 l -1.30145,0.0868"
         sodipodi:nodetypes="cccscsssssssscc"
         inkscape:connector-curvature="0" />
      <path
         style="font-size:12px;fill:#000000;fill-opacity:1;fill-rule:evenodd;stroke:none"
         sodipodi:nodetypes="cccccccccccccccccccccccccccccccccccccccccccccccccccccccccccccccccccccccccccccccccccccccccccccccccccccccccccccccccccccccccccccccccccccccccccccccccccccccccccccccccccccccccccccccccccccccccccccccccccccccccccccccccccc"
         id="path554"
         d="m 402.9388,219.07502 c -1.64749,11.53092 -0.0106,28.23299 2.8509,33.6957 -3.47181,-1.24745 -7.33406,-4.18611 -9.24482,-8.03511 -1.35375,4.20466 -2.70684,8.40932 -4.0606,12.61397 8.58383,17.42829 -13.73725,31.146 -32.31298,32.09641 11.33869,6.15317 26.17869,13.80978 26.17869,17.8419 -4.51032,1.6965 -7.19994,-3.11053 -10.79991,-4.66563 3.85959,10.03992 1.47528,17.47862 -0.51826,27.38873 -1.95149,2.3194 -0.002,3.85893 0.77755,5.78823 1.78558,0.69112 3.57115,1.38257 5.35674,2.07369 0.28778,0.2593 0.57588,0.51859 0.86397,0.77788 0,0 3.77085,0.17252 4.80803,5.44284 -2.50916,-3.04595 -5.93129,-2.07369 -5.93129,-2.07369 -0.43183,0.28811 -0.86399,0.57621 -1.2958,0.86398 -1.00804,-0.60468 -2.01607,-1.20937 -3.0241,-1.81406 -3.33902,-2.21806 -6.73633,-2.09819 -10.36777,-0.51859 -1.84319,1.10904 -3.74501,1.05009 -5.52959,0.17287 -2.04487,-2.22005 -6.47969,-0.2593 -6.56645,-0.2593 -0.0861,0 -4.75173,3.11021 -4.75173,3.11021 0,0 -1.12328,-0.2593 -1.20971,-0.2593 -0.0861,0 -3.02773,-0.0675 -6.9115,2.41908 1.02359,-5.28323 4.83816,-5.18356 4.83816,-5.18356 -0.354,-1.10373 0.46096,-0.92159 0.69145,-1.38255 1.25706,-1.39384 3.91654,-1.15176 5.87466,-1.72764 -3.74369,-0.17286 -7.48771,-0.34539 -11.2314,-0.51859 0.0576,-0.17286 0.11491,-0.34539 0.17253,-0.51824 -2.45518,-0.21426 -4.38481,-0.31096 -5.78857,1.98725 -0.1414,-3.85927 3.10522,-4.56397 5.18388,-5.4435 0.94047,-1.45543 2.99098,-1.217 4.92491,-1.03653 0,0 10.71315,3.97419 9.93561,3.71489 -0.77788,-0.25896 -12.61398,-5.34913 -12.61398,-5.34913 -0.58448,-0.87623 0.17253,-1.38985 0.17253,-1.47628 0,-0.0864 -3.19231,-2.01937 -5.44317,0.17286 0.43679,-4.58482 5.87533,-3.36948 5.87533,-3.36948 0.3093,-1.48688 1.78691,-1.27925 2.50551,-0.6047 1.41104,1.38258 2.82209,2.76448 4.23314,4.14705 1.32528,0.83551 2.64956,1.67034 3.97484,2.50551 3.68706,1.62662 7.60759,1.03386 10.88568,-4.23347 -1.11897,-2.71944 -0.60203,-3.9202 1.90115,-5.5296 -0.64443,-1.81439 -0.41229,-3.68707 0.3454,-5.44285 -1.11003,-1.6359 -1.773,-6.20615 -0.69079,-7.25789 -2.48233,-0.87624 -3.45625,-3.36949 -3.62911,-3.36949 -2.27602,0.46759 -4.24903,-0.27453 -5.18389,-1.20937 -3.52181,1.55443 -6.51776,0.71331 -8.81266,-1.29581 -4.04371,1.37892 -7.73608,0.42123 -9.67631,-1.29647 -3.09662,0.75967 -7.96722,-1.46171 -8.81299,-3.97417 -1.78062,0 -3.60162,-1.98958 -5.52961,-1.81406 -1.58556,2.6075 -2.00248,2.35218 -4.40599,4.49242 -2.45551,2.55751 -1.5806,6.86747 0.34572,8.8991 3.02376,1.15208 6.04753,2.30417 9.07129,3.45626 6.91251,0.39871 8.56596,4.36162 8.46761,8.20763 -2.6105,-0.78251 -2.70818,-1.21467 -3.97484,-1.29579 -1.78558,-0.63384 -3.57117,-1.26766 -5.35674,-1.90116 -5.57796,8.99811 -13.49253,15.30824 -24.79613,18.23034 2.15978,1.01797 4.32023,0.6335 6.48002,0.95041 0.77788,0.46096 1.55509,0.92127 2.33297,1.38257 3.36121,0.70635 5.72963,1.76406 5.70214,4.92426 -2.24887,-2.50617 -4.43945,-2.44227 -6.22073,-1.20938 -3.58209,1.50244 -5.64484,-1.78558 -8.46725,-2.67837 -2.39226,-1.72398 -4.72557,-0.99413 -6.82542,0.0861 -2.35848,-1.54583 -5.06698,-0.75536 -7.77582,-0.43182 -3.37545,0.33546 -7.21815,1.19745 -8.89909,3.11019 -1.11003,0.87623 -1.55509,-0.43182 -1.64152,-0.34539 -3.88411,-1.25706 -5.61572,2.16011 -5.61572,2.16011 -0.9206,-3.94701 1.07924,-4.79808 3.19663,-5.35674 -1.43985,-0.83517 -2.88004,-1.67033 -4.31989,-2.5055 -0.0894,-0.4931 -0.41328,-0.57721 0.43215,-0.77789 -1.69849,-1.08784 -3.39664,-0.24803 -5.27031,1.46867 0.1732,-3.59963 4.61197,-5.85579 6.47968,-4.66496 1.34614,-0.99511 3.80263,-1.17196 5.61604,0.34539 2.0399,1.54284 5.13123,1.7422 7.17112,1.12328 -0.88053,-2.43498 -3.68904,-3.87649 -5.27064,-3.97451 -2.22998,-0.54243 -4.81033,-1.31832 -4.0606,-2.67837 -1.37594,-1.95877 -3.33571,-1.34614 -5.52927,0.25929 0.7855,-4.45501 5.48589,-4.00266 6.73865,-3.0241 0.45268,-1.37163 1.89849,-1.69186 3.11052,-0.25929 1.91242,0.51263 2.1886,1.84321 3.28339,2.7648 2.1227,2.17303 5.41403,3.29499 8.12121,3.71521 2.53035,-1.45243 5.52795,-1.67762 8.46727,-1.72796 0.56362,-2.46842 2.17866,-3.00918 4.31956,-3.02375 -0.0729,-2.20052 1.02195,-3.17378 3.11053,-4.14737 0,0 -3.30855,-0.28778 -3.54235,-2.41908 -5.55013,-0.0282 -9.20938,-0.78418 -9.67664,-4.40633 -5.0534,-1.59054 -8.23678,-5.40079 -6.22072,-9.50378 -2.51146,0.75933 -4.14637,0.81795 -6.30715,0 -3.50526,3.07576 -8.93817,6.79394 -12.26825,4.72854 -1.57762,1.6359 -5.27064,3.56586 -5.35674,3.56586 -0.43746,3.91424 -3.45625,8.72591 -3.45625,8.72591 -1.49946,-3.77086 -4.34209,-7.89272 -4.14704,-11.60528 -5.0544,6.56942 -8.0063,8.52389 -12.00928,12.81498 -3.24299,3.33305 -4.90836,7.25061 -6.04819,11.57713 2.41774,1.38588 5.52959,1.15208 8.29439,1.72829 0.7504,0.98187 0.57589,0.57587 0.86399,0.86398 2.94892,0.058 5.12626,1.68756 5.09745,4.75173 -2.63036,-2.71745 -5.26999,-1.03652 -5.26999,-1.03652 -2.15879,1.79254 -4.89577,0.98319 -7.51685,0 -2.27304,-2.42636 -5.58723,-3.81158 -8.38083,-1.72795 -3.36916,2.74492 -4.88883,-1.44947 -10.10847,1.46866 -3.71621,3.38042 -8.8779,3.69634 -10.28166,1.64153 0,0 -2.57771,-1.02393 -6.22039,2.85123 1.04081,-6.30185 4.92458,-5.70213 4.92458,-5.70213 -0.0573,-0.66231 -0.11491,-1.32494 -0.17253,-1.98725 -0.48977,-0.1732 -0.97888,-0.34572 -1.46867,-0.51859 -2.6214,-1.15706 -5.87897,-0.86829 -7.34399,0.34539 1.00174,-4.12916 4.83716,-4.15333 7.6894,-3.71489 0.51858,-0.57587 1.0365,-1.15207 1.55509,-1.72795 -1.18487,-0.45964 -0.92326,-1.26699 -0.60469,-2.07368 -1.5839,-1.58954 -2.76314,-1.90745 -4.75205,-0.25897 0.6272,-4.0159 4.43414,-3.75396 7.0847,-1.98758 1.43688,-0.89875 4.55104,0.8047 6.56644,1.98758 6.13694,2.05978 9.9611,2.32669 16.15633,-5.61604 0.0531,-3.77746 0.27982,-5.24249 3.62844,-7.51652 -1.27527,-2.3055 -0.58448,-4.61098 2.59228,-5.70213 -1.12692,-1.06499 -0.25564,-2.63234 0.52521,-4.27519 -4.55204,-0.20432 -9.65711,0.26889 -13.22595,1.51005 -1.17857,3.6013 -2.70353,7.37579 -5.26998,9.76307 0.058,-9.38025 -5.34747,-16.02916 -11.92285,-23.06815 -7.54368,-4.94215 -10.8847,-14.89199 -11.49137,-18.14358 -1.38687,3.64169 -2.33264,4.23347 -2.33264,4.31956 -1.67696,1.82069 -0.53713,5.96143 -4.00564,6.04819 -3.23729,3.9606 -7.13977,1.64153 -7.13977,1.64153 3.69409,-0.51461 4.32368,-2.01209 5.01109,-4.49276 -2.31394,-0.54541 -0.29136,-2.47803 0.86397,-3.19696 0.71798,-0.13875 2.53468,-4.72954 3.71525,-4.57887 0.48944,-4.52156 0.97922,-9.04347 1.46867,-13.5647 -2.97177,-1.23455 -4.96041,-3.16352 -4.75189,-6.48003 -1.09821,-1.41137 -1.8494,-3.4579 -0.34563,-4.23346 -0.65995,-1.70014 -1.43551,-3.57381 -3.88794,-4.23347 5.68518,-0.98618 6.39782,2.47902 7.86218,2.7648 1.67067,0.99943 2.82077,6.73997 4.83849,9.76308 -1.53324,-4.95638 -0.75371,-8.29441 0.77754,-12.61431 0.004,-2.3343 -0.97458,-4.60999 -3.28305,-5.96175 4.8567,-0.11525 6.82541,4.92491 6.99793,5.0981 3.06418,3.98875 -1.07061,6.7605 0.25931,8.55304 0.95041,-0.71993 1.43852,-2.36543 2.85122,-2.15978 1.18256,-1.29349 2.07701,-2.70354 1.98726,-5.61604 2.97608,1.6975 2.25185,4.20367 1.2958,6.65287 0.17717,3.66422 -0.33943,4.66794 -2.76447,5.96144 -2.42867,1.44548 -2.88103,2.64227 -2.59194,4.406 2.94893,3.15158 3.54235,12.87359 3.54235,12.87359 2.96846,0.89444 4.052,3.45493 3.88774,5.52928 2.80422,-0.25036 5.3594,1.92134 5.78857,3.8884 1.65742,-1.55608 3.99405,-0.10762 5.61604,1.5551 0.5719,-0.86729 1.78724,-1.26964 3.11053,-0.77788 -0.003,-1.5243 0.85404,-2.47637 2.24588,-3.71488 -3.35326,-2.60188 -4.27619,-9.0299 -0.51793,-12.52821 -0.75172,-4.71165 0.68151,-9.15573 3.1102,-9.67631 -0.78516,-5.16435 2.30351,-6.80223 3.54235,-8.03511 -0.80968,-2.3704 1.80943,-6.71083 3.28306,-6.73897 -1.47462,-2.45717 1.25872,-6.93966 3.45625,-7.25757 0,-0.0864 -1.469,-3.45592 -1.469,-3.45592 0,0 -7.03734,1.05638 -8.29407,7.51653 -0.86729,-1.34316 -1.72829,-3.36949 -1.72829,-3.36949 0,0 -2.81017,7.51751 -2.89693,7.34498 -2.42736,-1.47363 -1.3362,-5.09844 -1.3362,-5.09844 -1.76108,-1.92863 -1.44019,-4.37751 -2.16046,-6.56644 -6.59492,-0.28777 -13.18985,-0.57588 -19.78511,-0.86399 0,0 2.24622,4.14738 2.24622,4.06095 -2.34092,0.0437 -13.77235,-9.73327 -15.98353,-18.05738 5.85917,4.60148 12.10903,5.82118 18.74866,7.17106 -1.75677,0.86395 -3.51354,1.72793 -5.27064,2.59191 18.20915,1.56073 37.06537,-1.8144 36.9786,-1.90082 -2.03725,-4.24824 -8.72622,-4.23341 -8.72622,-4.23341 0,0.95038 0,1.90076 0,2.85114 -0.60469,-0.43196 -1.20937,-0.86398 -1.81439,-1.29593 -0.0285,0.71995 -0.0573,1.43998 -0.0861,2.15994 -0.46096,-0.31678 -0.92161,-0.6336 -1.38257,-0.95034 -0.14372,0.60475 -0.2881,1.20964 -0.43182,1.81433 -0.46097,-0.31693 -0.9216,-0.63351 -1.38256,-0.95042 -0.20168,0.54707 -0.40302,1.09446 -0.60469,1.64153 -0.51859,-0.40302 -1.03651,-0.80636 -1.5551,-1.20937 0,0 -1.29614,-3.3e-4 -1.38257,-0.17286 -0.84576,-4.3211 -4.92491,-4.4064 -4.92491,-4.4064 -4.78783,-0.61635 -8.52489,0.40322 -12.78684,0.60479 6.25913,-7.85206 14.85854,-7.11998 23.06849,-7.94866 0.5984,-3.49129 3.66753,-4.51123 7.25724,-5.01112 0,0 16.84777,0.86399 16.9342,0.86399 2.16741,-2.86143 8.8991,-4.0607 8.8991,-4.0607 2.36146,-1.18081 4.98319,-0.67073 7.0847,-3.54236 -0.54839,3.92229 -0.57621,4.72315 -0.86398,7.08471 0.72025,0.0864 1.43986,0.17272 2.16011,0.25916 -1.95844,1.26712 -4.56694,3.05456 -6.52571,4.32175 -2.18031,3.30269 -1.75909,3.35379 -0.81829,5.09567 0.66232,1.15197 1.32495,2.30399 1.98725,3.45597 3.35956,1.03496 5.80878,2.46004 6.56645,4.66543 -3.63408,-0.43547 -6.27933,0.24075 -6.22072,1.81439 0.0715,1.15871 2.83037,1.67464 3.95365,2.36576 2.0866,1.9558 2.77142,3.67813 2.87176,6.10118 -2.67837,-0.14372 -6.17469,-4.14373 -8.03511,-0.43183 -0.88783,1.81572 0.0937,4.27454 2.41907,5.09745 4.26494,1.16864 4.66531,6.99827 4.57887,6.99827 -0.0861,0 -9.36867,-6.19555 -8.90108,-0.41128 -0.15498,2.55517 1.0342,3.12343 1.98957,3.8672 2.78103,1.02691 5.15341,2.22899 4.83816,5.18388 -4.00067,-1.44117 -5.89818,-0.31095 -6.39325,1.98726 0.51858,1.49746 1.03651,2.99495 1.55509,4.49275 5.41404,-1.09479 10.82872,-2.18859 16.24309,-3.28338 2.3661,-2.15614 3.43175,-5.74254 3.19629,-9.58988 0.28248,-5.73095 -1.77597,-10.81217 5.52961,-17.1935 15.23207,-12.69305 30.72443,-22.65489 48.03781,-32.22655 -3.51189,5.85284 -6.03925,16.75939 3.15191,17.45339 2.94794,0.0437 35.29504,-13.56544 35.29504,-13.56544 -11.24632,8.20783 -24.18449,19.66721 -9.15806,24.62338 -13.78659,4.29209 -25.22133,18.233 -15.20625,29.46209 -7.15358,-2.03727 -16.53913,2.57338 -18.23,7.77582 8.13743,-0.0606 15.49435,-0.51064 23.24135,2.15978 0,0 21.59652,4.30301 23.06783,-5.18355 -11.53441,2.47934 -20.08546,1.33289 -20.47589,-9.07195 0.10033,-8.92262 13.50643,-13.9429 24.92228,-7.25757 1.18058,-2.41907 2.32173,-4.83848 3.50263,-7.25756 -4.17585,0.5166 -7.94604,1.2246 -12.26759,0.21458 8.78584,-8.33612 17.05143,-16.54198 24.53649,-25.78841 z"
         inkscape:connector-curvature="0" />
    </g>
  </g>
</svg>
